<svg xmlns="http://www.w3.org/2000/svg" version="1.0" viewBox="321.47 6.47 797.25 797.25"><defs><clipPath id="a"><path d="M 321.46875 6.46875 L 1118.71875 6.46875 L 1118.71875 803.71875 L 321.46875 803.71875 Z M 321.46875 6.46875"/></clipPath></defs><g clip-path="url(#a)"><path fill="#FFF" d="M 473.796875 468.875 C 459.84375 462.136719 444.269531 458.242188 427.769531 458.242188 C 369.15625 458.242188 321.46875 505.933594 321.46875 564.542969 C 321.46875 623.152344 369.15625 670.84375 427.769531 670.84375 C 464.546875 670.84375 497.007812 652.054688 516.101562 623.578125 L 616.515625 673.847656 C 614.789062 681.433594 613.792969 689.3125 613.792969 697.417969 C 613.792969 756.027344 661.480469 803.71875 720.09375 803.71875 C 778.703125 803.71875 826.394531 756.027344 826.394531 697.417969 C 826.394531 675.386719 819.65625 654.910156 808.121094 637.917969 L 949.222656 490.386719 C 966.921875 503.511719 988.738281 511.394531 1012.417969 511.394531 C 1071.027344 511.394531 1118.71875 463.703125 1118.71875 405.09375 C 1118.71875 346.480469 1071.027344 298.792969 1012.417969 298.792969 C 987.890625 298.792969 965.355469 307.21875 947.335938 321.222656 L 803.964844 177.851562 C 817.96875 159.832031 826.394531 137.296875 826.394531 112.769531 C 826.394531 54.15625 778.703125 6.46875 720.09375 6.46875 C 661.480469 6.46875 613.792969 54.15625 613.792969 112.769531 C 613.792969 120.847656 614.777344 128.699219 616.503906 136.273438 L 522.269531 170.609375 C 504.597656 136.3125 468.917969 112.769531 427.769531 112.769531 C 369.15625 112.769531 321.46875 160.457031 321.46875 219.066406 C 321.46875 277.679688 369.15625 325.367188 427.769531 325.367188 C 442.890625 325.367188 457.253906 322.152344 470.289062 316.425781 L 519.199219 398.742188 Z M 427.769531 644.269531 C 383.800781 644.269531 348.042969 608.511719 348.042969 564.542969 C 348.042969 520.574219 383.800781 484.816406 427.769531 484.816406 C 471.738281 484.816406 507.492188 520.574219 507.492188 564.542969 C 507.492188 608.511719 471.738281 644.269531 427.769531 644.269531 Z M 527.941406 599.769531 C 531.835938 588.726562 534.066406 576.902344 534.066406 564.542969 C 534.066406 531.949219 519.292969 502.769531 496.132812 483.261719 L 534.347656 424.242188 L 649.5625 618.117188 C 639.863281 626.753906 631.746094 637.09375 625.726562 648.71875 Z M 720.09375 219.066406 C 744.621094 219.066406 767.15625 210.644531 785.175781 196.640625 L 928.5625 340.023438 C 919.964844 351.078125 913.53125 363.847656 909.824219 377.746094 L 826.351562 366.265625 C 826.339844 365.921875 826.394531 365.574219 826.394531 365.230469 C 826.394531 306.621094 778.703125 258.929688 720.09375 258.929688 C 683.3125 258.929688 650.839844 277.71875 631.757812 306.195312 L 615.90625 298.273438 L 674.078125 208.4375 C 688.015625 215.175781 703.589844 219.066406 720.09375 219.066406 Z M 733.378906 592.035156 L 733.378906 470.601562 C 776.566406 465.179688 811.695312 433.792969 822.699219 392.578125 L 906.171875 404.058594 C 906.171875 404.402344 906.117188 404.746094 906.117188 405.09375 C 906.117188 430.472656 915.074219 453.765625 929.96875 472.0625 L 790.449219 617.945312 C 774.8125 604.085938 755.132812 594.773438 733.378906 592.035156 Z M 720.09375 285.503906 C 764.0625 285.503906 799.816406 321.261719 799.816406 365.230469 C 799.816406 409.199219 764.0625 444.957031 720.09375 444.957031 C 676.125 444.957031 640.367188 409.199219 640.367188 365.230469 C 640.367188 321.261719 676.125 285.503906 720.09375 285.503906 Z M 619.917969 330.003906 C 616.023438 341.046875 613.792969 352.875 613.792969 365.230469 C 613.792969 419.335938 654.453125 464.035156 706.804688 470.613281 L 706.804688 592.046875 C 694.210938 593.628906 682.316406 597.402344 671.488281 602.996094 L 550.464844 399.339844 L 601.371094 320.730469 Z M 720.09375 777.144531 C 676.125 777.144531 640.367188 741.386719 640.367188 697.417969 C 640.367188 653.449219 676.125 617.691406 720.09375 617.691406 C 764.0625 617.691406 799.816406 653.449219 799.816406 697.417969 C 799.816406 741.386719 764.0625 777.144531 720.09375 777.144531 Z M 1012.417969 325.367188 C 1056.386719 325.367188 1092.144531 361.125 1092.144531 405.09375 C 1092.144531 449.0625 1056.386719 484.816406 1012.417969 484.816406 C 968.449219 484.816406 932.691406 449.0625 932.691406 405.09375 C 932.691406 361.125 968.449219 325.367188 1012.417969 325.367188 Z M 720.09375 33.042969 C 764.0625 33.042969 799.816406 68.800781 799.816406 112.769531 C 799.816406 156.738281 764.0625 192.492188 720.09375 192.492188 C 676.125 192.492188 640.367188 156.738281 640.367188 112.769531 C 640.367188 68.800781 676.125 33.042969 720.09375 33.042969 Z M 625.59375 161.226562 C 632.089844 173.835938 640.980469 184.984375 651.730469 194.046875 L 591.988281 286.316406 L 527.941406 254.292969 C 531.835938 243.25 534.066406 231.425781 534.066406 219.066406 C 534.066406 210.988281 533.085938 203.136719 531.355469 195.5625 Z M 348.042969 219.066406 C 348.042969 175.101562 383.800781 139.34375 427.769531 139.34375 C 471.738281 139.34375 507.492188 175.101562 507.492188 219.066406 C 507.492188 263.035156 471.738281 298.792969 427.769531 298.792969 C 383.800781 298.792969 348.042969 263.035156 348.042969 219.066406 Z M 493.074219 302.765625 C 501.980469 295.804688 509.792969 287.511719 516.101562 278.105469 L 577.453125 308.773438 L 535.316406 373.839844 Z M 493.074219 302.765625"/></g></svg>