<svg xmlns="http://www.w3.org/2000/svg" width="375" viewBox="0 0 375 375" height="375" version="1.0"><defs><clipPath id="a"><path d="M 1.507812 1.507812 L 373.507812 1.507812 L 373.507812 373.507812 L 1.507812 373.507812 Z M 1.507812 1.507812"/></clipPath></defs><g clip-path="url(#a)"><path fill="#FFF" d="M 72.585938 217.265625 C 66.074219 214.125 58.808594 212.308594 51.105469 212.308594 C 23.757812 212.308594 1.507812 234.558594 1.507812 261.90625 C 1.507812 289.253906 23.757812 311.507812 51.105469 311.507812 C 68.269531 311.507812 83.414062 302.742188 92.324219 289.453125 L 139.179688 312.910156 C 138.371094 316.449219 137.90625 320.125 137.90625 323.90625 C 137.90625 351.253906 160.160156 373.507812 187.507812 373.507812 C 214.855469 373.507812 237.105469 351.253906 237.105469 323.90625 C 237.105469 313.628906 233.964844 304.074219 228.582031 296.144531 L 294.421875 227.304688 C 302.679688 233.429688 312.859375 237.105469 323.90625 237.105469 C 351.253906 237.105469 373.507812 214.855469 373.507812 187.507812 C 373.507812 160.160156 351.253906 137.90625 323.90625 137.90625 C 312.460938 137.90625 301.945312 141.839844 293.539062 148.371094 L 226.640625 81.476562 C 233.175781 73.066406 237.105469 62.550781 237.105469 51.105469 C 237.105469 23.757812 214.855469 1.507812 187.507812 1.507812 C 160.160156 1.507812 137.90625 23.757812 137.90625 51.105469 C 137.90625 54.875 138.367188 58.542969 139.171875 62.074219 L 95.203125 78.097656 C 86.957031 62.09375 70.308594 51.105469 51.105469 51.105469 C 23.757812 51.105469 1.507812 73.359375 1.507812 100.707031 C 1.507812 128.054688 23.757812 150.308594 51.105469 150.308594 C 58.164062 150.308594 64.863281 148.808594 70.945312 146.132812 L 93.769531 184.542969 Z M 51.105469 299.105469 C 30.589844 299.105469 13.90625 282.421875 13.90625 261.90625 C 13.90625 241.390625 30.589844 224.707031 51.105469 224.707031 C 71.621094 224.707031 88.308594 241.390625 88.308594 261.90625 C 88.308594 282.421875 71.621094 299.105469 51.105469 299.105469 Z M 97.847656 278.34375 C 99.664062 273.191406 100.707031 267.671875 100.707031 261.90625 C 100.707031 246.699219 93.8125 233.082031 83.007812 223.980469 L 100.835938 196.441406 L 154.597656 286.90625 C 150.070312 290.9375 146.285156 295.757812 143.476562 301.183594 Z M 187.507812 100.707031 C 198.953125 100.707031 209.46875 96.777344 217.875 90.242188 L 284.777344 157.144531 C 280.769531 162.304688 277.765625 168.261719 276.035156 174.746094 L 237.089844 169.390625 C 237.082031 169.230469 237.105469 169.070312 237.105469 168.90625 C 237.105469 141.558594 214.855469 119.308594 187.507812 119.308594 C 170.34375 119.308594 155.191406 128.074219 146.289062 141.359375 L 138.894531 137.664062 L 166.035156 95.746094 C 172.539062 98.890625 179.808594 100.707031 187.507812 100.707031 Z M 193.707031 274.734375 L 193.707031 218.074219 C 213.855469 215.542969 230.25 200.898438 235.382812 181.667969 L 274.332031 187.023438 C 274.332031 187.183594 274.308594 187.347656 274.308594 187.507812 C 274.308594 199.347656 278.484375 210.21875 285.4375 218.753906 L 220.335938 286.824219 C 213.039062 280.359375 203.855469 276.011719 193.707031 274.734375 Z M 187.507812 131.707031 C 208.023438 131.707031 224.707031 148.390625 224.707031 168.90625 C 224.707031 189.421875 208.023438 206.105469 187.507812 206.105469 C 166.992188 206.105469 150.308594 189.421875 150.308594 168.90625 C 150.308594 148.390625 166.992188 131.707031 187.507812 131.707031 Z M 140.765625 152.472656 C 138.949219 157.625 137.90625 163.140625 137.90625 168.90625 C 137.90625 194.152344 156.878906 215.011719 181.308594 218.078125 L 181.308594 274.742188 C 175.429688 275.480469 169.878906 277.238281 164.828125 279.851562 L 108.359375 184.824219 L 132.109375 148.144531 Z M 187.507812 361.105469 C 166.992188 361.105469 150.308594 344.421875 150.308594 323.90625 C 150.308594 303.390625 166.992188 286.707031 187.507812 286.707031 C 208.023438 286.707031 224.707031 303.390625 224.707031 323.90625 C 224.707031 344.421875 208.023438 361.105469 187.507812 361.105469 Z M 323.90625 150.308594 C 344.421875 150.308594 361.105469 166.992188 361.105469 187.507812 C 361.105469 208.023438 344.421875 224.707031 323.90625 224.707031 C 303.390625 224.707031 286.707031 208.023438 286.707031 187.507812 C 286.707031 166.992188 303.390625 150.308594 323.90625 150.308594 Z M 187.507812 13.90625 C 208.023438 13.90625 224.707031 30.589844 224.707031 51.105469 C 224.707031 71.621094 208.023438 88.308594 187.507812 88.308594 C 166.992188 88.308594 150.308594 71.621094 150.308594 51.105469 C 150.308594 30.589844 166.992188 13.90625 187.507812 13.90625 Z M 143.414062 73.71875 C 146.445312 79.601562 150.59375 84.804688 155.609375 89.03125 L 127.734375 132.085938 L 97.847656 117.144531 C 99.664062 111.992188 100.707031 106.472656 100.707031 100.707031 C 100.707031 96.9375 100.25 93.273438 99.441406 89.738281 Z M 13.90625 100.707031 C 13.90625 80.191406 30.589844 63.507812 51.105469 63.507812 C 71.621094 63.507812 88.308594 80.191406 88.308594 100.707031 C 88.308594 121.222656 71.621094 137.90625 51.105469 137.90625 C 30.589844 137.90625 13.90625 121.222656 13.90625 100.707031 Z M 81.582031 139.761719 C 85.734375 136.511719 89.378906 132.644531 92.324219 128.253906 L 120.949219 142.5625 L 101.289062 172.925781 Z M 81.582031 139.761719"/></g></svg>