<svg xmlns="http://www.w3.org/2000/svg" width="1920" viewBox="0 0 1440 810" height="1080" version="1.0"><defs><clipPath id="a"><path d="M 0 430.492188 L 277.5 430.492188 L 277.5 809.992188 L 0 809.992188 Z M 0 430.492188"/></clipPath><clipPath id="b"><path d="M 1162.667969 430.492188 L 1439.992188 430.492188 L 1439.992188 809.992188 L 1162.667969 809.992188 Z M 1162.667969 430.492188"/></clipPath><clipPath id="c"><path d="M 0 0 L 277.5 0 L 277.5 379.253906 L 0 379.253906 Z M 0 0"/></clipPath><clipPath id="d"><path d="M 1162.667969 0 L 1439.992188 0 L 1439.992188 379.253906 L 1162.667969 379.253906 Z M 1162.667969 0"/></clipPath></defs><path fill="#980026" d="M 1.78125 432.574219 C 1.78125 460.640625 20.371094 484.714844 45.410156 506.296875 C 79.8125 535.890625 126.359375 560.820312 153.816406 584.894531 C 207.628906 632.15625 275.722656 706.304688 275.722656 807.910156 L 1.78125 807.910156 Z M 1.78125 432.574219"/><g clip-path="url(#a)"><path transform="matrix(0 -.35614 .35613 0 .002 809.691)" fill="none" stroke-linejoin="round" d="M 1058.901979 4.996319 C 980.094707 4.996319 912.497044 57.195267 851.897159 127.503158 C 768.80128 224.102472 698.801558 354.802758 631.203894 431.900132 C 498.498372 583.001772 290.298007 774.204138 5.001426 774.204138 L 5.001426 4.996319 Z M 1058.901979 4.996319" stroke="#F3F6E6" stroke-width="10" stroke-miterlimit="10"/></g><path fill="#980026" d="M 1438.210938 432.574219 C 1438.210938 460.640625 1419.621094 484.714844 1394.585938 506.296875 C 1360.183594 535.890625 1313.636719 560.820312 1286.179688 584.894531 C 1232.367188 632.15625 1164.273438 706.304688 1164.273438 807.910156 L 1438.210938 807.910156 Z M 1438.210938 432.574219"/><g clip-path="url(#b)"><path transform="matrix(0 -.35614 -.35613 0 1439.993 809.691)" fill="none" stroke-linejoin="round" d="M 1058.901979 5.002954 C 980.094707 5.002954 912.497044 57.201902 851.897159 127.498825 C 768.80128 224.098138 698.801558 354.798425 631.203894 431.895799 C 498.498372 582.997439 290.298007 774.199805 5.001426 774.199805 L 5.001426 5.002954 Z M 1058.901979 5.002954" stroke="#F3F6E6" stroke-width="10" stroke-miterlimit="10"/></g><path fill="#980026" d="M 1.78125 377.414062 C 1.78125 349.351562 20.371094 325.277344 45.410156 303.695312 C 79.8125 274.101562 126.359375 249.171875 153.816406 225.09375 C 207.628906 177.835938 275.722656 103.6875 275.722656 2.082031 L 1.78125 2.082031 Z M 1.78125 377.414062"/><g clip-path="url(#c)"><path transform="matrix(0 .35614 .35613 0 .002 .3)" fill="none" stroke-linejoin="round" d="M 1058.894588 4.996319 C 980.098285 4.996319 912.500621 57.195267 851.900736 127.503158 C 768.804858 224.102472 698.805135 354.802758 631.196503 431.900132 C 498.50195 583.001772 290.301585 774.204138 5.005004 774.204138 L 5.005004 4.996319 Z M 1058.894588 4.996319" stroke="#F3F6E6" stroke-width="10" stroke-miterlimit="10"/></g><path fill="#980026" d="M 1438.210938 377.414062 C 1438.210938 349.351562 1419.621094 325.277344 1394.585938 303.695312 C 1360.183594 274.101562 1313.636719 249.171875 1286.179688 225.09375 C 1232.367188 177.835938 1164.273438 103.6875 1164.273438 2.082031 L 1438.210938 2.082031 Z M 1438.210938 377.414062"/><g clip-path="url(#d)"><path transform="matrix(0 .35614 -.35613 0 1439.993 .3)" fill="none" stroke-linejoin="round" d="M 1058.894588 5.002954 C 980.098285 5.002954 912.500621 57.201902 851.900736 127.498825 C 768.804858 224.098138 698.805135 354.798425 631.196503 431.895799 C 498.50195 582.997439 290.301585 774.199805 5.005004 774.199805 L 5.005004 5.002954 Z M 1058.894588 5.002954" stroke="#F3F6E6" stroke-width="10" stroke-miterlimit="10"/></g></svg>