<svg xmlns="http://www.w3.org/2000/svg" width="375" viewBox="0 0 375 375" height="375" version="1.0"><defs><clipPath id="a"><path d="M 2.808594 2.808594 L 372.558594 2.808594 L 372.558594 372.558594 L 2.808594 372.558594 Z M 2.808594 2.808594"/></clipPath><clipPath id="b"><path d="M 60.148438 115 L 272 115 L 272 323 L 60.148438 323 Z M 60.148438 115"/></clipPath></defs><g clip-path="url(#a)"><path fill="#980026" d="M 187.683594 21.296875 C 279.4375 21.296875 354.074219 95.933594 354.074219 187.683594 C 354.074219 279.4375 279.4375 354.074219 187.683594 354.074219 C 95.933594 354.074219 21.296875 279.4375 21.296875 187.683594 C 21.296875 95.933594 95.933594 21.296875 187.683594 21.296875 M 187.683594 2.808594 C 85.578125 2.808594 2.808594 85.578125 2.808594 187.683594 C 2.808594 289.792969 85.578125 372.558594 187.683594 372.558594 C 289.792969 372.558594 372.558594 289.792969 372.558594 187.683594 C 372.558594 85.578125 289.792969 2.808594 187.683594 2.808594 Z M 187.683594 2.808594"/></g><g clip-path="url(#b)"><path fill="#980026" d="M 86.199219 322.707031 L 250.761719 322.707031 C 252.457031 322.707031 253.941406 321.648438 254.574219 320.167969 C 255.210938 318.691406 255 317 253.941406 315.730469 C 251.1875 312.558594 243.984375 301.988281 243.984375 292.898438 C 243.984375 282.117188 250.339844 271.757812 252.878906 267.742188 L 267.707031 267.742188 C 269.402344 267.742188 270.882812 266.683594 271.519531 265.203125 C 272.152344 263.726562 271.941406 262.035156 270.882812 260.765625 C 268.128906 257.59375 260.929688 247.023438 260.929688 237.933594 C 260.929688 224.402344 270.882812 211.296875 271.09375 211.085938 C 272.152344 209.816406 272.152344 208.125 271.519531 206.644531 C 270.882812 205.164062 269.402344 204.320312 267.707031 204.320312 L 263.257812 204.320312 C 260.503906 200.9375 253.515625 191.636719 253.515625 182.96875 C 253.515625 169.648438 264.527344 156.542969 264.527344 156.332031 C 265.589844 155.0625 265.800781 153.371094 265.164062 151.890625 C 264.527344 150.414062 263.046875 149.355469 261.351562 149.355469 L 246.527344 149.355469 L 246.527344 115.742188 L 187.011719 135.824219 C 185.742188 136.460938 184.472656 136.671875 182.988281 136.671875 C 181.507812 136.671875 180.234375 136.460938 178.964844 136.035156 L 119.449219 115.742188 L 119.449219 149.355469 C 104.203125 149.777344 91.917969 161.40625 91.917969 175.570312 L 91.917969 186.5625 C 91.917969 193.539062 94.882812 199.878906 99.753906 204.53125 C 87.046875 206.222656 77.089844 217.214844 77.089844 230.535156 L 77.089844 241.527344 C 77.089844 248.503906 79.84375 254.632812 84.082031 259.496094 C 70.738281 260.554688 60.148438 271.757812 60.148438 285.5 L 60.148438 296.492188 C 60.148438 310.867188 71.796875 322.707031 86.199219 322.707031 Z M 100.390625 175.570312 C 100.390625 165.84375 109.285156 157.8125 120.296875 157.8125 L 253.09375 157.8125 C 249.28125 163.730469 244.832031 173.03125 244.832031 182.96875 C 244.832031 191 248.855469 199.035156 252.457031 204.320312 L 120.296875 204.320312 C 109.285156 204.320312 100.390625 196.285156 100.390625 186.5625 Z M 68.621094 285.5 C 68.621094 275.773438 76.667969 267.742188 86.199219 267.742188 L 242.925781 267.742188 C 239.539062 273.660156 235.511719 282.960938 235.511719 292.898438 C 235.511719 300.933594 239.324219 308.964844 242.503906 314.25 L 86.199219 314.25 C 76.457031 314.25 68.621094 306.21875 68.621094 296.492188 Z M 68.621094 285.5"/></g><path fill="#980026" d="M 67.347656 89.316406 L 119.449219 106.863281 L 181.71875 128.003906 C 182.566406 128.214844 183.625 128.214844 184.472656 128.003906 L 246.738281 106.863281 L 293.332031 91.007812 L 293.332031 145.128906 C 286.132812 146.183594 280.625 152.316406 280.625 159.714844 L 280.625 166.054688 C 280.625 170.707031 284.4375 174.511719 289.097656 174.511719 L 292.273438 174.511719 L 280.835938 226.519531 C 280.203125 229.265625 280.835938 232.015625 282.742188 234.339844 C 284.648438 236.664062 287.402344 237.933594 290.578125 237.933594 L 304.769531 237.933594 C 307.734375 237.933594 310.699219 236.664062 312.605469 234.339844 C 314.300781 232.015625 315.148438 229.265625 314.511719 226.519531 L 302.652344 174.722656 L 305.828125 174.722656 C 310.488281 174.722656 314.300781 170.917969 314.300781 166.265625 L 314.300781 159.925781 C 314.300781 152.527344 308.792969 146.394531 301.59375 145.339844 C 301.59375 145.339844 301.59375 114.894531 301.59375 97.136719 L 301.59375 85.089844 C 301.59375 84.242188 301.167969 83.1875 300.535156 82.550781 C 300.324219 82.339844 300.324219 82.339844 300.109375 82.128906 C 299.6875 81.707031 299.476562 81.496094 299.050781 81.28125 C 298.839844 81.28125 298.628906 81.070312 298.417969 81.070312 L 184.046875 52.109375 C 183.625 52.109375 183.414062 52.109375 182.988281 52.109375 C 182.566406 52.109375 182.351562 52.109375 181.929688 52.320312 L 67.5625 81.28125 C 67.347656 81.28125 67.136719 81.496094 66.925781 81.496094 C 66.5 81.496094 66.078125 81.707031 65.867188 82.128906 C 65.65625 82.339844 65.65625 82.339844 65.441406 82.550781 C 64.808594 83.1875 64.382812 84.03125 64.382812 85.089844 C 64.382812 86.355469 64.808594 87.414062 65.65625 88.257812 C 66.078125 88.683594 66.5 89.105469 67.347656 89.316406 Z M 182.988281 60.777344 L 282.53125 85.933594 L 182.988281 119.757812 L 83.445312 85.933594 Z M 182.988281 60.777344"/></svg>