<svg xmlns="http://www.w3.org/2000/svg" width="375" viewBox="0 0 375 375" height="375" version="1.0"><defs><clipPath id="a"><path d="M 191 88 L 373.652344 88 L 373.652344 344.421875 L 191 344.421875 Z M 191 88"/></clipPath><clipPath id="b"><path d="M 191 35 L 333 35 L 333 344.421875 L 191 344.421875 Z M 191 35"/></clipPath><clipPath id="c"><path d="M 191 59 L 353 59 L 353 344.421875 L 191 344.421875 Z M 191 59"/></clipPath><clipPath id="d"><path d="M 1.652344 88 L 184 88 L 184 344.421875 L 1.652344 344.421875 Z M 1.652344 88"/></clipPath><clipPath id="e"><path d="M 43 35 L 184 35 L 184 344.421875 L 43 344.421875 Z M 43 35"/></clipPath><clipPath id="f"><path d="M 22 59 L 184 59 L 184 344.421875 L 22 344.421875 Z M 22 59"/></clipPath></defs><g clip-path="url(#a)"><path fill="#FFF" d="M 352.617188 88.691406 C 352.617188 94.054688 352.617188 99.425781 352.617188 104.796875 C 354.429688 105.351562 356.222656 105.933594 358.015625 106.527344 C 358.015625 178.496094 358.015625 250.460938 358.015625 322.429688 C 329.761719 312.976562 300.160156 308.976562 270.761719 310.425781 C 243.777344 315.988281 216.808594 327.410156 191.390625 344.382812 C 249.742188 320.203125 315.296875 320.203125 373.644531 344.382812 C 373.644531 261.671875 373.644531 178.96875 373.644531 96.261719 C 366.734375 93.394531 359.71875 90.871094 352.617188 88.691406"/></g><g clip-path="url(#b)"><path fill="#FFF" d="M 203.464844 317.230469 C 241.308594 284.5625 282.253906 266.9375 320.097656 267.035156 C 320.097656 195.074219 320.097656 123.105469 320.097656 51.140625 C 282.253906 51.046875 241.308594 68.660156 203.464844 101.339844 C 203.464844 173.304688 203.464844 245.261719 203.464844 317.230469 Z M 332.171875 283.792969 C 287.105469 279.019531 236.460938 300.808594 191.390625 344.382812 C 191.390625 261.671875 191.390625 178.96875 191.390625 96.261719 C 236.460938 52.695312 287.105469 30.890625 332.171875 35.679688 C 332.171875 118.382812 332.171875 201.085938 332.171875 283.792969"/></g><g clip-path="url(#c)"><path fill="#FFF" d="M 332.171875 59.984375 C 332.171875 65.355469 332.171875 70.726562 332.171875 76.085938 C 334.386719 76.398438 336.601562 76.753906 338.792969 77.140625 C 338.792969 149.097656 338.792969 221.074219 338.792969 293.035156 C 313.085938 288.441406 286.117188 289.867188 259.382812 297.011719 C 236.265625 307.351562 213.175781 323.320312 191.390625 344.382812 C 243.011719 309.910156 301.007812 298.351562 352.617188 312.230469 C 352.617188 229.523438 352.617188 146.820312 352.617188 64.117188 C 345.90625 62.304688 339.074219 60.933594 332.171875 59.984375"/></g><g clip-path="url(#d)"><path fill="#FFF" d="M 22.6875 88.691406 C 22.6875 94.054688 22.6875 99.425781 22.6875 104.796875 C 20.882812 105.351562 19.085938 105.933594 17.296875 106.527344 C 17.296875 178.496094 17.296875 250.460938 17.296875 322.429688 C 45.558594 312.976562 75.15625 308.976562 104.546875 310.425781 C 131.53125 315.988281 158.5 327.410156 183.917969 344.382812 C 125.570312 320.203125 60.011719 320.203125 1.660156 344.382812 C 1.660156 261.671875 1.660156 178.96875 1.660156 96.261719 C 8.582031 93.394531 15.597656 90.871094 22.6875 88.691406"/></g><g clip-path="url(#e)"><path fill="#FFF" d="M 171.839844 101.339844 C 134.003906 68.660156 93.050781 51.046875 55.214844 51.140625 C 55.214844 123.105469 55.214844 195.074219 55.214844 267.035156 C 93.050781 266.9375 134.003906 284.5625 171.839844 317.230469 C 171.839844 245.261719 171.839844 173.304688 171.839844 101.339844 Z M 43.144531 35.679688 C 88.210938 30.890625 138.847656 52.695312 183.917969 96.261719 C 183.917969 178.96875 183.917969 261.671875 183.917969 344.382812 C 138.847656 300.808594 88.210938 279.019531 43.144531 283.792969 C 43.144531 201.085938 43.144531 118.382812 43.144531 35.679688"/></g><g clip-path="url(#f)"><path fill="#FFF" d="M 43.144531 59.984375 C 43.144531 65.355469 43.144531 70.726562 43.144531 76.085938 C 40.921875 76.398438 38.707031 76.753906 36.511719 77.140625 C 36.511719 149.097656 36.511719 221.074219 36.511719 293.035156 C 62.21875 288.441406 89.199219 289.867188 115.925781 297.011719 C 139.050781 307.351562 162.136719 323.320312 183.917969 344.382812 C 132.300781 309.910156 74.304688 298.351562 22.6875 312.230469 C 22.6875 229.523438 22.6875 146.820312 22.6875 64.117188 C 29.40625 62.304688 36.234375 60.933594 43.144531 59.984375"/></g></svg>