<svg xmlns="http://www.w3.org/2000/svg" width="375" viewBox="0 0 375 375" height="375" version="1.0"><defs><clipPath id="a"><path d="M 42.117188 1.707031 L 333 1.707031 L 333 372.957031 L 42.117188 372.957031 Z M 42.117188 1.707031"/></clipPath></defs><g clip-path="url(#a)"><path fill="#F9FFFC" d="M 73.9375 12.503906 C 62.636719 12.503906 53.4375 21.683594 53.4375 32.96875 L 53.4375 341.820312 C 53.4375 353.105469 62.636719 362.285156 73.9375 362.285156 L 301.433594 362.285156 C 312.730469 362.285156 321.925781 353.105469 321.925781 341.820312 L 321.925781 32.96875 C 321.925781 21.683594 312.730469 12.503906 301.433594 12.503906 Z M 301.433594 373.03125 L 73.9375 373.03125 C 56.703125 373.03125 42.675781 359.027344 42.675781 341.820312 L 42.675781 32.96875 C 42.675781 15.765625 56.703125 1.765625 73.9375 1.765625 L 301.433594 1.765625 C 318.660156 1.765625 332.683594 15.765625 332.683594 32.96875 L 332.683594 341.820312 C 332.683594 359.027344 318.660156 373.03125 301.433594 373.03125"/></g><path fill="#F9FFFC" d="M 284.554688 49.378906 C 283.839844 49.378906 283.09375 49.410156 282.320312 49.476562 C 282.15625 49.492188 281.992188 49.503906 281.835938 49.503906 L 91.988281 49.632812 C 82.015625 49.632812 77.761719 53.507812 77.761719 62.609375 L 77.761719 93.730469 C 77.761719 105.167969 82.980469 106.703125 88.09375 106.703125 L 284.304688 106.703125 C 291.839844 106.703125 297.605469 105.75 297.605469 93.730469 L 297.605469 62.609375 C 297.605469 58.628906 296.332031 49.378906 284.554688 49.378906 Z M 284.304688 117.835938 L 88.09375 117.835938 C 74.636719 117.835938 66.601562 108.820312 66.601562 93.730469 L 66.601562 62.609375 C 66.601562 47.28125 75.855469 38.496094 91.984375 38.496094 L 281.589844 38.371094 C 300.550781 36.832031 308.757812 49.792969 308.757812 62.609375 L 308.757812 93.730469 C 308.757812 109.726562 300.527344 117.835938 284.304688 117.835938"/><path fill="#F9FFFC" d="M 77.363281 164.449219 L 97.304688 164.449219 L 97.304688 143.9375 L 77.363281 143.9375 Z M 100.371094 175.183594 L 74.308594 175.183594 C 70.0625 175.183594 66.601562 171.738281 66.601562 167.507812 L 66.601562 140.878906 C 66.601562 136.648438 70.0625 133.203125 74.308594 133.203125 L 100.371094 133.203125 C 104.613281 133.203125 108.066406 136.648438 108.066406 140.878906 L 108.066406 167.507812 C 108.066406 171.738281 104.613281 175.183594 100.371094 175.183594"/><path fill="#F9FFFC" d="M 127.324219 164.449219 L 147.261719 164.449219 L 147.261719 143.9375 L 127.324219 143.9375 Z M 150.324219 175.183594 L 124.253906 175.183594 C 120.011719 175.183594 116.566406 171.738281 116.566406 167.507812 L 116.566406 140.878906 C 116.566406 136.648438 120.011719 133.203125 124.253906 133.203125 L 150.324219 133.203125 C 154.5625 133.203125 158.019531 136.648438 158.019531 140.878906 L 158.019531 167.507812 C 158.019531 171.738281 154.5625 175.183594 150.324219 175.183594"/><path fill="#F9FFFC" d="M 177.277344 164.449219 L 197.207031 164.449219 L 197.207031 143.9375 L 177.277344 143.9375 Z M 200.277344 175.183594 L 174.207031 175.183594 C 169.964844 175.183594 166.515625 171.738281 166.515625 167.507812 L 166.515625 140.878906 C 166.515625 136.648438 169.964844 133.203125 174.207031 133.203125 L 200.277344 133.203125 C 204.523438 133.203125 207.96875 136.648438 207.96875 140.878906 L 207.96875 167.507812 C 207.96875 171.738281 204.523438 175.183594 200.277344 175.183594"/><path fill="#F9FFFC" d="M 227.21875 164.449219 L 247.164062 164.449219 L 247.164062 143.9375 L 227.21875 143.9375 Z M 250.226562 175.183594 L 224.164062 175.183594 C 219.917969 175.183594 216.460938 171.738281 216.460938 167.507812 L 216.460938 140.878906 C 216.460938 136.648438 219.917969 133.203125 224.164062 133.203125 L 250.226562 133.203125 C 254.46875 133.203125 257.921875 136.648438 257.921875 140.878906 L 257.921875 167.507812 C 257.921875 171.738281 254.46875 175.183594 250.226562 175.183594"/><path fill="#F9FFFC" d="M 77.363281 218.234375 L 97.304688 218.234375 L 97.304688 197.726562 L 77.363281 197.726562 Z M 100.371094 228.976562 L 74.308594 228.976562 C 70.0625 228.976562 66.601562 225.527344 66.601562 221.285156 L 66.601562 194.671875 C 66.601562 190.429688 70.0625 186.980469 74.308594 186.980469 L 100.371094 186.980469 C 104.613281 186.980469 108.066406 190.429688 108.066406 194.671875 L 108.066406 221.285156 C 108.066406 225.527344 104.613281 228.976562 100.371094 228.976562"/><path fill="#F9FFFC" d="M 127.324219 218.234375 L 147.261719 218.234375 L 147.261719 197.726562 L 127.324219 197.726562 Z M 150.324219 228.976562 L 124.253906 228.976562 C 120.011719 228.976562 116.566406 225.527344 116.566406 221.285156 L 116.566406 194.671875 C 116.566406 190.429688 120.011719 186.980469 124.253906 186.980469 L 150.324219 186.980469 C 154.5625 186.980469 158.019531 190.429688 158.019531 194.671875 L 158.019531 221.285156 C 158.019531 225.527344 154.5625 228.976562 150.324219 228.976562"/><path fill="#F9FFFC" d="M 177.277344 218.234375 L 197.207031 218.234375 L 197.207031 197.726562 L 177.277344 197.726562 Z M 200.277344 228.976562 L 174.207031 228.976562 C 169.964844 228.976562 166.515625 225.527344 166.515625 221.285156 L 166.515625 194.671875 C 166.515625 190.429688 169.964844 186.980469 174.207031 186.980469 L 200.277344 186.980469 C 204.523438 186.980469 207.96875 190.429688 207.96875 194.671875 L 207.96875 221.285156 C 207.96875 225.527344 204.523438 228.976562 200.277344 228.976562"/><path fill="#F9FFFC" d="M 227.21875 218.210938 L 247.164062 218.210938 L 247.164062 197.703125 L 227.21875 197.703125 Z M 250.226562 228.949219 L 224.164062 228.949219 C 219.917969 228.949219 216.460938 225.5 216.460938 221.265625 L 216.460938 194.644531 C 216.460938 190.410156 219.917969 186.960938 224.164062 186.960938 L 250.226562 186.960938 C 254.46875 186.960938 257.921875 190.410156 257.921875 194.644531 L 257.921875 221.265625 C 257.921875 225.5 254.46875 228.949219 250.226562 228.949219"/><path fill="#F9FFFC" d="M 77.363281 272.027344 L 97.304688 272.027344 L 97.304688 251.511719 L 77.363281 251.511719 Z M 100.371094 282.761719 L 74.308594 282.761719 C 70.0625 282.761719 66.601562 279.3125 66.601562 275.078125 L 66.601562 248.457031 C 66.601562 244.21875 70.0625 240.773438 74.308594 240.773438 L 100.371094 240.773438 C 104.613281 240.773438 108.066406 244.21875 108.066406 248.457031 L 108.066406 275.078125 C 108.066406 279.3125 104.613281 282.761719 100.371094 282.761719"/><path fill="#F9FFFC" d="M 127.324219 272.027344 L 147.261719 272.027344 L 147.261719 251.511719 L 127.324219 251.511719 Z M 150.324219 282.761719 L 124.253906 282.761719 C 120.011719 282.761719 116.566406 279.3125 116.566406 275.078125 L 116.566406 248.457031 C 116.566406 244.21875 120.011719 240.773438 124.253906 240.773438 L 150.324219 240.773438 C 154.5625 240.773438 158.019531 244.21875 158.019531 248.457031 L 158.019531 275.078125 C 158.019531 279.3125 154.5625 282.761719 150.324219 282.761719"/><path fill="#F9FFFC" d="M 177.277344 272.027344 L 197.207031 272.027344 L 197.207031 251.511719 L 177.277344 251.511719 Z M 200.277344 282.761719 L 174.207031 282.761719 C 169.964844 282.761719 166.515625 279.3125 166.515625 275.078125 L 166.515625 248.457031 C 166.515625 244.21875 169.964844 240.773438 174.207031 240.773438 L 200.277344 240.773438 C 204.523438 240.773438 207.96875 244.21875 207.96875 248.457031 L 207.96875 275.078125 C 207.96875 279.3125 204.523438 282.761719 200.277344 282.761719"/><path fill="#F9FFFC" d="M 77.363281 325.800781 L 97.304688 325.800781 L 97.304688 305.296875 L 77.363281 305.296875 Z M 100.371094 336.550781 L 74.308594 336.550781 C 70.0625 336.550781 66.601562 333.097656 66.601562 328.863281 L 66.601562 302.246094 C 66.601562 298.003906 70.0625 294.5625 74.308594 294.5625 L 100.371094 294.5625 C 104.613281 294.5625 108.066406 298.003906 108.066406 302.246094 L 108.066406 328.863281 C 108.066406 333.097656 104.613281 336.550781 100.371094 336.550781"/><path fill="#F9FFFC" d="M 127.324219 325.800781 L 147.261719 325.800781 L 147.261719 305.296875 L 127.324219 305.296875 Z M 150.324219 336.550781 L 124.253906 336.550781 C 120.011719 336.550781 116.566406 333.097656 116.566406 328.863281 L 116.566406 302.246094 C 116.566406 298.003906 120.011719 294.5625 124.253906 294.5625 L 150.324219 294.5625 C 154.5625 294.5625 158.019531 298.003906 158.019531 302.246094 L 158.019531 328.863281 C 158.019531 333.097656 154.5625 336.550781 150.324219 336.550781"/><path fill="#F9FFFC" d="M 177.277344 325.800781 L 197.207031 325.800781 L 197.207031 305.296875 L 177.277344 305.296875 Z M 200.277344 336.550781 L 174.207031 336.550781 C 169.964844 336.550781 166.515625 333.097656 166.515625 328.863281 L 166.515625 302.246094 C 166.515625 298.003906 169.964844 294.5625 174.207031 294.5625 L 200.277344 294.5625 C 204.523438 294.5625 207.96875 298.003906 207.96875 302.246094 L 207.96875 328.863281 C 207.96875 333.097656 204.523438 336.550781 200.277344 336.550781"/><path fill="#F9FFFC" d="M 227.21875 271.980469 L 247.164062 271.980469 L 247.164062 251.46875 L 227.21875 251.46875 Z M 250.226562 282.714844 L 224.164062 282.714844 C 219.917969 282.714844 216.460938 279.269531 216.460938 275.03125 L 216.460938 248.40625 C 216.460938 244.175781 219.917969 240.726562 224.164062 240.726562 L 250.226562 240.726562 C 254.46875 240.726562 257.921875 244.175781 257.921875 248.40625 L 257.921875 275.03125 C 257.921875 279.269531 254.46875 282.714844 250.226562 282.714844"/><path fill="#F9FFFC" d="M 278.054688 271.980469 L 278.054688 143.9375 L 297.996094 143.9375 L 297.996094 271.980469 Z M 301.0625 133.203125 L 274.996094 133.203125 C 270.746094 133.203125 267.292969 136.648438 267.292969 140.878906 L 267.292969 275.03125 C 267.292969 279.269531 270.746094 282.714844 274.996094 282.714844 L 301.0625 282.714844 C 305.300781 282.714844 308.757812 279.269531 308.757812 275.03125 L 308.757812 140.878906 C 308.757812 136.648438 305.300781 133.203125 301.0625 133.203125"/><path fill="#F9FFFC" d="M 298.585938 325.648438 L 227.15625 325.648438 L 227.15625 305.453125 L 298.585938 305.453125 Z M 216.460938 302.355469 L 216.460938 328.75 C 216.460938 333.042969 218.878906 336.550781 224.351562 336.550781 L 301.148438 336.550781 C 303.761719 336.550781 308.757812 334.859375 308.757812 328.75 L 308.757812 302.355469 C 308.757812 296.71875 303.414062 294.5625 300.796875 294.5625 L 224.238281 294.5625 C 218.992188 294.5625 216.460938 298.054688 216.460938 302.355469"/></svg>