<svg xmlns="http://www.w3.org/2000/svg" width="375" viewBox="0 0 375 375" height="375" version="1.0"><defs><clipPath id="a"><path d="M 4 51.785156 L 371 51.785156 L 371 323.285156 L 4 323.285156 Z M 4 51.785156"/></clipPath></defs><g clip-path="url(#a)"><path fill="#F9FFFC" d="M 67.941406 175.375 L 95.847656 175.375 C 98.246094 175.375 99.832031 173.785156 99.832031 171.386719 C 99.832031 168.988281 98.246094 167.402344 95.847656 167.402344 L 67.941406 167.402344 C 65.542969 167.402344 63.953125 168.988281 63.953125 171.386719 C 63.953125 173.785156 65.542969 175.375 67.941406 175.375 Z M 119.765625 171.386719 C 119.765625 173.785156 121.355469 175.375 123.753906 175.375 L 211.460938 175.375 C 213.84375 175.375 215.445312 173.785156 215.445312 171.386719 C 215.445312 168.988281 213.84375 167.402344 211.460938 167.402344 L 123.753906 167.402344 C 121.355469 167.402344 119.765625 168.988281 119.765625 171.386719 Z M 307.140625 167.402344 L 239.367188 167.402344 C 236.984375 167.402344 235.378906 168.988281 235.378906 171.386719 C 235.378906 173.785156 236.984375 175.375 239.367188 175.375 L 307.140625 175.375 C 309.523438 175.375 311.125 173.785156 311.125 171.386719 C 311.125 168.988281 309.523438 167.402344 307.140625 167.402344 Z M 307.140625 195.308594 L 279.234375 195.308594 C 276.851562 195.308594 275.246094 196.914062 275.246094 199.296875 C 275.246094 201.679688 276.851562 203.28125 279.234375 203.28125 L 307.140625 203.28125 C 309.523438 203.28125 311.125 201.679688 311.125 199.296875 C 311.125 196.914062 309.523438 195.308594 307.140625 195.308594 Z M 251.324219 195.308594 L 163.621094 195.308594 C 161.222656 195.308594 159.632812 196.914062 159.632812 199.296875 C 159.632812 201.679688 161.222656 203.28125 163.621094 203.28125 L 251.324219 203.28125 C 253.707031 203.28125 255.3125 201.679688 255.3125 199.296875 C 255.3125 196.914062 253.707031 195.308594 251.324219 195.308594 Z M 279.234375 147.46875 L 307.140625 147.46875 C 309.523438 147.46875 311.125 145.878906 311.125 143.480469 C 311.125 141.082031 309.523438 139.492188 307.140625 139.492188 L 279.234375 139.492188 C 276.851562 139.492188 275.246094 141.082031 275.246094 143.480469 C 275.246094 145.878906 276.851562 147.46875 279.234375 147.46875 Z M 251.324219 147.46875 C 253.707031 147.46875 255.3125 145.878906 255.3125 143.480469 C 255.3125 141.082031 253.707031 139.492188 251.324219 139.492188 L 163.621094 139.492188 C 161.222656 139.492188 159.632812 141.082031 159.632812 143.480469 C 159.632812 145.878906 161.222656 147.46875 163.621094 147.46875 Z M 119.765625 119.558594 L 255.3125 119.558594 C 257.695312 119.558594 259.300781 117.972656 259.300781 115.574219 C 259.300781 113.175781 257.695312 111.585938 255.3125 111.585938 L 119.765625 111.585938 C 117.367188 111.585938 115.78125 113.175781 115.78125 115.574219 C 115.78125 117.972656 117.367188 119.558594 119.765625 119.558594 Z M 362.953125 63.746094 C 362.953125 61.347656 361.347656 59.757812 358.964844 59.757812 L 16.113281 59.757812 C 13.714844 59.757812 12.128906 61.347656 12.128906 63.746094 L 12.128906 287.003906 C 12.128906 289.402344 13.714844 290.992188 16.113281 290.992188 L 224.214844 290.992188 L 232.59375 271.058594 L 55.980469 271.058594 C 53.582031 271.058594 51.992188 269.453125 51.992188 267.070312 C 51.992188 258.300781 44.816406 251.125 36.046875 251.125 C 33.648438 251.125 32.0625 249.519531 32.0625 247.136719 L 32.0625 103.613281 C 32.0625 101.214844 33.648438 99.625 36.046875 99.625 C 44.816406 99.625 51.992188 92.445312 51.992188 83.679688 C 51.992188 81.28125 53.582031 79.691406 55.980469 79.691406 L 319.097656 79.691406 C 321.480469 79.691406 323.085938 81.28125 323.085938 83.679688 C 323.085938 92.445312 330.265625 99.625 339.03125 99.625 C 341.414062 99.625 343.019531 101.214844 343.019531 103.613281 L 343.019531 247.136719 C 343.019531 249.519531 341.414062 251.125 339.03125 251.125 C 330.265625 251.125 323.085938 258.300781 323.085938 267.070312 C 323.085938 269.453125 321.480469 271.058594 319.097656 271.058594 L 286.007812 271.058594 L 294.386719 290.992188 L 358.964844 290.992188 C 361.347656 290.992188 362.953125 289.402344 362.953125 287.003906 Z M 288.808594 298.558594 L 288 296.566406 L 279.621094 275.839844 C 275.246094 279.421875 270.464844 281.414062 265.277344 282.628906 L 274.453125 304.945312 L 275.636719 296.175781 C 276.039062 294.183594 278.035156 292.578125 280.027344 292.984375 C 280.835938 292.984375 281.226562 293.390625 281.613281 293.777344 Z M 283.21875 251.125 C 283.21875 237.964844 272.457031 227.203125 259.300781 227.203125 C 246.140625 227.203125 235.378906 237.964844 235.378906 251.125 C 235.378906 264.28125 246.140625 275.042969 259.300781 275.042969 C 272.457031 275.042969 283.21875 264.28125 283.21875 251.125 Z M 40.035156 243.539062 C 50 245.144531 57.972656 253.117188 59.5625 263.082031 L 229.789062 263.082031 C 223.03125 246.746094 231.003906 227.996094 247.339844 221.613281 C 263.675781 214.851562 282.425781 222.828125 288.808594 239.164062 C 291.988281 246.746094 291.988281 255.5 288.808594 263.082031 L 315.5 263.082031 C 317.105469 253.117188 325.078125 245.144531 335.046875 243.539062 L 335.046875 107.195312 C 325.078125 105.605469 317.105469 97.632812 315.5 87.664062 L 59.5625 87.664062 C 57.972656 97.632812 50 105.605469 40.035156 107.195312 Z M 253.707031 282.628906 C 248.539062 281.820312 243.351562 279.421875 239.367188 275.839844 L 231.003906 296.566406 L 230.195312 298.558594 L 237.371094 293.390625 C 238.976562 292.191406 241.75 292.578125 242.964844 294.183594 C 243.351562 294.574219 243.742188 295.382812 243.742188 295.773438 L 244.957031 304.539062 Z M 370.925781 63.746094 L 370.925781 287.003906 C 370.925781 293.777344 365.738281 298.964844 358.964844 298.964844 L 297.5625 298.964844 L 301.546875 308.929688 C 302.359375 310.925781 301.546875 313.324219 299.164062 314.117188 C 297.964844 314.507812 296.378906 314.507812 295.179688 313.710938 L 282.019531 303.746094 L 279.621094 320.097656 C 279.234375 321.6875 278.035156 323.289062 276.039062 323.289062 L 275.636719 323.289062 C 274.046875 323.289062 272.457031 322.496094 272.054688 320.890625 L 259.300781 289.402344 L 246.140625 320.890625 C 245.347656 322.496094 244.148438 323.289062 242.558594 323.289062 L 242.152344 323.289062 C 240.566406 322.886719 238.976562 321.6875 238.570312 320.097656 L 236.171875 303.746094 L 223.03125 313.710938 C 221.425781 314.910156 218.640625 314.507812 217.441406 312.917969 C 216.644531 311.71875 216.242188 310.519531 217.050781 308.929688 L 221.035156 298.964844 L 16.113281 298.964844 C 9.339844 298.964844 4.152344 293.777344 4.152344 287.003906 L 4.152344 63.746094 C 4.152344 56.96875 9.339844 51.785156 16.113281 51.785156 L 358.964844 51.785156 C 365.738281 51.785156 370.925781 56.96875 370.925781 63.746094 Z M 67.941406 203.28125 L 135.714844 203.28125 C 138.113281 203.28125 139.699219 201.679688 139.699219 199.296875 C 139.699219 196.914062 138.113281 195.308594 135.714844 195.308594 L 67.941406 195.308594 C 65.542969 195.308594 63.953125 196.914062 63.953125 199.296875 C 63.953125 201.679688 65.542969 203.28125 67.941406 203.28125 Z M 67.941406 147.46875 L 135.714844 147.46875 C 138.113281 147.46875 139.699219 145.878906 139.699219 143.480469 C 139.699219 141.082031 138.113281 139.492188 135.714844 139.492188 L 67.941406 139.492188 C 65.542969 139.492188 63.953125 141.082031 63.953125 143.480469 C 63.953125 145.878906 65.542969 147.46875 67.941406 147.46875 Z M 151.253906 237.167969 C 152.066406 239.164062 151.253906 241.546875 149.261719 242.355469 C 134.515625 249.519531 124.953125 241.949219 116.183594 235.175781 C 113.785156 233.183594 111.792969 231.578125 109.007812 229.988281 C 101.828125 225.210938 90.273438 239.550781 86.675781 244.753906 C 85.476562 246.34375 82.6875 246.746094 81.097656 245.53125 C 79.496094 244.347656 79.105469 241.949219 79.902344 240.363281 C 82.6875 235.96875 86.285156 231.984375 89.867188 228.804688 C 101.03125 218.839844 108.601562 220.429688 113.382812 223.605469 C 116.183594 225.597656 118.566406 227.203125 120.964844 229.195312 C 128.9375 235.566406 134.917969 240.363281 145.273438 235.175781 C 147.671875 234.785156 150.070312 235.566406 151.253906 237.167969"/></g></svg>