<?xml version="1.0" encoding="UTF-8"?><svg xmlns="http://www.w3.org/2000/svg" xmlns:xlink="http://www.w3.org/1999/xlink" contentScriptType="text/ecmascript" width="375" zoomAndPan="magnify" contentStyleType="text/css" viewBox="0 0 375 374.999991" height="374.999991" preserveAspectRatio="xMidYMid meet" version="1.0"><path fill="rgb(90.19928%, 91.369629%, 92.939758%)" d="M 17.855469 48.886719 L 29.761719 48.886719 L 29.761719 245.375 L 17.855469 245.375 Z M 17.855469 48.886719 " fill-opacity="1" fill-rule="nonzero"/><path fill="rgb(26.269531%, 29.019165%, 32.939148%)" d="M 29.761719 48.945312 L 357.144531 48.945312 L 357.144531 245.316406 L 29.761719 245.316406 Z M 29.761719 48.945312 " fill-opacity="1" fill-rule="nonzero"/><path fill="rgb(79.998779%, 81.959534%, 85.099792%)" d="M 196.429688 284.007812 C 196.429688 284.59375 196.371094 285.171875 196.257812 285.746094 C 196.144531 286.324219 195.972656 286.882812 195.75 287.421875 C 195.523438 287.964844 195.25 288.480469 194.921875 288.964844 C 194.597656 289.453125 194.226562 289.90625 193.8125 290.320312 C 193.398438 290.734375 192.949219 291.105469 192.460938 291.429688 C 191.972656 291.753906 191.457031 292.03125 190.917969 292.253906 C 190.375 292.480469 189.816406 292.648438 189.242188 292.761719 C 188.667969 292.878906 188.085938 292.933594 187.5 292.933594 C 186.914062 292.933594 186.332031 292.878906 185.757812 292.761719 C 185.183594 292.648438 184.625 292.480469 184.082031 292.253906 C 183.542969 292.03125 183.027344 291.753906 182.539062 291.429688 C 182.050781 291.105469 181.601562 290.734375 181.1875 290.320312 C 180.773438 289.90625 180.402344 289.453125 180.074219 288.964844 C 179.75 288.480469 179.476562 287.964844 179.25 287.421875 C 179.027344 286.882812 178.855469 286.324219 178.742188 285.746094 C 178.628906 285.171875 178.570312 284.59375 178.570312 284.007812 C 178.570312 283.417969 178.628906 282.839844 178.742188 282.265625 C 178.855469 281.6875 179.027344 281.128906 179.25 280.589844 C 179.476562 280.046875 179.75 279.53125 180.074219 279.046875 C 180.402344 278.558594 180.773438 278.105469 181.1875 277.691406 C 181.601562 277.277344 182.050781 276.90625 182.539062 276.582031 C 183.027344 276.257812 183.542969 275.980469 184.082031 275.757812 C 184.625 275.53125 185.183594 275.363281 185.757812 275.25 C 186.332031 275.132812 186.914062 275.078125 187.5 275.078125 C 188.085938 275.078125 188.667969 275.132812 189.242188 275.25 C 189.816406 275.363281 190.375 275.53125 190.917969 275.757812 C 191.457031 275.980469 191.972656 276.257812 192.460938 276.582031 C 192.949219 276.90625 193.398438 277.277344 193.8125 277.691406 C 194.226562 278.105469 194.597656 278.558594 194.921875 279.046875 C 195.25 279.53125 195.523438 280.046875 195.75 280.589844 C 195.972656 281.128906 196.144531 281.6875 196.257812 282.265625 C 196.371094 282.839844 196.429688 283.417969 196.429688 284.007812 Z M 196.429688 284.007812 " fill-opacity="1" fill-rule="nonzero"/><path fill="rgb(79.998779%, 81.959534%, 85.099792%)" d="M 375 287.101562 L 375 298.886719 C 375 308.941406 367.195312 316.742188 357.144531 316.742188 C 352.917969 316.742188 293.867188 316.742188 226.132812 316.742188 C 200.773438 316.742188 174.21875 316.742188 148.867188 316.742188 C 81.132812 316.742188 22.082031 316.742188 17.855469 316.742188 C 7.804688 316.742188 0 308.941406 0 298.886719 L 0 287.101562 C 0 296.921875 8.035156 304.957031 17.855469 304.957031 L 357.144531 304.957031 C 366.964844 304.957031 375 296.921875 375 287.101562 Z M 375 287.101562 " fill-opacity="1" fill-rule="nonzero"/><path fill="rgb(79.998779%, 81.959534%, 85.099792%)" d="M 226.132812 316.742188 L 238.035156 370.316406 L 136.964844 370.316406 L 148.867188 316.742188 C 174.226562 316.742188 200.773438 316.742188 226.132812 316.742188 Z M 226.132812 316.742188 " fill-opacity="1" fill-rule="nonzero"/><path fill="rgb(90.19928%, 91.369629%, 92.939758%)" d="M 187.5 263.171875 L 0 263.171875 L 0 287.101562 C 0 296.921875 8.035156 304.957031 17.855469 304.957031 L 357.144531 304.957031 C 366.964844 304.957031 375 296.921875 375 287.101562 L 375 263.171875 Z M 187.5 292.933594 C 182.558594 292.933594 178.570312 288.945312 178.570312 284.007812 C 178.570312 279.066406 182.558594 275.078125 187.5 275.078125 C 192.441406 275.078125 196.429688 279.066406 196.429688 284.007812 C 196.429688 288.945312 192.441406 292.933594 187.5 292.933594 Z M 187.5 292.933594 " fill-opacity="1" fill-rule="nonzero"/><path fill="rgb(39.608765%, 42.749023%, 47.059631%)" d="M 375 49.007812 L 375 263.171875 L 0 263.171875 L 0 49.007812 C 0 39.191406 8.035156 31.148438 17.855469 31.148438 L 357.144531 31.148438 C 366.964844 31.148438 375 39.183594 375 49.007812 Z M 357.144531 245.316406 L 357.144531 48.886719 L 17.855469 48.886719 L 17.855469 245.316406 Z M 357.144531 245.316406 " fill-opacity="1" fill-rule="nonzero"/><path fill="rgb(66.668701%, 69.799805%, 74.119568%)" d="M 227.457031 322.695312 L 226.132812 316.742188 C 200.773438 316.742188 174.21875 316.742188 148.867188 316.742188 L 147.542969 322.695312 Z M 227.457031 322.695312 " fill-opacity="1" fill-rule="nonzero"/><path fill="rgb(90.19928%, 91.369629%, 92.939758%)" d="M 247.023438 373.257812 L 127.976562 373.257812 C 126.332031 373.257812 125 371.921875 125 370.28125 C 125 368.636719 126.332031 367.304688 127.976562 367.304688 L 247.023438 367.304688 C 248.667969 367.304688 250 368.636719 250 370.28125 C 250 371.921875 248.667969 373.257812 247.023438 373.257812 Z M 247.023438 373.257812 " fill-opacity="1" fill-rule="nonzero"/><path fill="rgb(100%, 80.778503%, 32.939148%)" d="M 71.429688 69.78125 L 47.617188 69.78125 C 45.976562 69.78125 44.644531 68.445312 44.644531 66.804688 C 44.644531 65.160156 45.976562 63.828125 47.617188 63.828125 L 71.429688 63.828125 C 73.070312 63.828125 74.40625 65.160156 74.40625 66.804688 C 74.40625 68.445312 73.070312 69.78125 71.429688 69.78125 Z M 71.429688 69.78125 " fill-opacity="1" fill-rule="nonzero"/><path fill="rgb(67.449951%, 57.249451%, 92.549133%)" d="M 178.570312 87.636719 L 95.238281 87.636719 C 93.59375 87.636719 92.261719 86.304688 92.261719 84.660156 C 92.261719 83.019531 93.59375 81.683594 95.238281 81.683594 L 178.570312 81.683594 C 180.214844 81.683594 181.546875 83.019531 181.546875 84.660156 C 181.546875 86.304688 180.214844 87.636719 178.570312 87.636719 Z M 178.570312 87.636719 " fill-opacity="1" fill-rule="nonzero"/><path fill="rgb(67.449951%, 57.249451%, 92.549133%)" d="M 83.332031 87.636719 L 53.570312 87.636719 C 51.929688 87.636719 50.59375 86.304688 50.59375 84.660156 C 50.59375 83.019531 51.929688 81.683594 53.570312 81.683594 L 83.332031 81.683594 C 84.976562 81.683594 86.308594 83.019531 86.308594 84.660156 C 86.308594 86.304688 84.976562 87.636719 83.332031 87.636719 Z M 83.332031 87.636719 " fill-opacity="1" fill-rule="nonzero"/><path fill="rgb(36.468506%, 61.178589%, 92.549133%)" d="M 250 105.492188 L 172.617188 105.492188 C 170.976562 105.492188 169.644531 104.160156 169.644531 102.519531 C 169.644531 100.875 170.976562 99.542969 172.617188 99.542969 L 250 99.542969 C 251.644531 99.542969 252.976562 100.875 252.976562 102.519531 C 252.976562 104.160156 251.644531 105.492188 250 105.492188 Z M 250 105.492188 " fill-opacity="1" fill-rule="nonzero"/><path fill="rgb(36.468506%, 61.178589%, 92.549133%)" d="M 285.714844 105.492188 L 261.90625 105.492188 C 260.261719 105.492188 258.929688 104.160156 258.929688 102.519531 C 258.929688 100.875 260.261719 99.542969 261.90625 99.542969 L 285.714844 99.542969 C 287.355469 99.542969 288.691406 100.875 288.691406 102.519531 C 288.691406 104.160156 287.355469 105.492188 285.714844 105.492188 Z M 285.714844 105.492188 " fill-opacity="1" fill-rule="nonzero"/><path fill="rgb(36.468506%, 61.178589%, 92.549133%)" d="M 160.714844 105.492188 L 59.523438 105.492188 C 57.882812 105.492188 56.546875 104.160156 56.546875 102.519531 C 56.546875 100.875 57.882812 99.542969 59.523438 99.542969 L 160.714844 99.542969 C 162.355469 99.542969 163.691406 100.875 163.691406 102.519531 C 163.691406 104.160156 162.355469 105.492188 160.714844 105.492188 Z M 160.714844 105.492188 " fill-opacity="1" fill-rule="nonzero"/><path fill="rgb(92.939758%, 33.329773%, 39.608765%)" d="M 89.296875 141.207031 L 71.441406 141.207031 C 69.796875 141.207031 68.464844 139.875 68.464844 138.230469 C 68.464844 136.589844 69.796875 135.257812 71.441406 135.257812 L 89.296875 135.257812 C 90.941406 135.257812 92.273438 136.589844 92.273438 138.230469 C 92.273438 139.875 90.941406 141.207031 89.296875 141.207031 Z M 89.296875 141.207031 " fill-opacity="1" fill-rule="nonzero"/><path fill="rgb(92.939758%, 33.329773%, 39.608765%)" d="M 189.558594 141.207031 L 101.203125 141.207031 C 99.558594 141.207031 98.226562 139.875 98.226562 138.230469 C 98.226562 136.589844 99.558594 135.257812 101.203125 135.257812 L 189.558594 135.257812 C 191.203125 135.257812 192.535156 136.589844 192.535156 138.230469 C 192.535156 139.875 191.203125 141.207031 189.558594 141.207031 Z M 189.558594 141.207031 " fill-opacity="1" fill-rule="nonzero"/><path fill="rgb(62.748718%, 83.139038%, 40.779114%)" d="M 202.382812 123.351562 L 65.476562 123.351562 C 63.832031 123.351562 62.5 122.019531 62.5 120.375 C 62.5 118.730469 63.832031 117.398438 65.476562 117.398438 L 202.382812 117.398438 C 204.023438 117.398438 205.355469 118.730469 205.355469 120.375 C 205.355469 122.019531 204.023438 123.351562 202.382812 123.351562 Z M 202.382812 123.351562 " fill-opacity="1" fill-rule="nonzero"/><path fill="rgb(30.979919%, 75.689697%, 91.369629%)" d="M 208.34375 159.066406 L 154.773438 159.066406 C 153.132812 159.066406 151.796875 157.730469 151.796875 156.089844 C 151.796875 154.445312 153.132812 153.113281 154.773438 153.113281 L 208.34375 153.113281 C 209.988281 153.113281 211.320312 154.445312 211.320312 156.089844 C 211.320312 157.730469 209.988281 159.066406 208.34375 159.066406 Z M 208.34375 159.066406 " fill-opacity="1" fill-rule="nonzero"/><path fill="rgb(62.748718%, 83.139038%, 40.779114%)" d="M 166.679688 176.921875 L 65.488281 176.921875 C 63.84375 176.921875 62.511719 175.589844 62.511719 173.945312 C 62.511719 172.304688 63.84375 170.96875 65.488281 170.96875 L 166.679688 170.96875 C 168.320312 170.96875 169.65625 172.304688 169.65625 173.945312 C 169.65625 175.589844 168.320312 176.921875 166.679688 176.921875 Z M 166.679688 176.921875 " fill-opacity="1" fill-rule="nonzero"/><path fill="rgb(67.449951%, 57.249451%, 92.549133%)" d="M 101.191406 212.636719 L 53.570312 212.636719 C 51.929688 212.636719 50.59375 211.304688 50.59375 209.660156 C 50.59375 208.019531 51.929688 206.683594 53.570312 206.683594 L 101.191406 206.683594 C 102.832031 206.683594 104.167969 208.019531 104.167969 209.660156 C 104.167969 211.304688 102.832031 212.636719 101.191406 212.636719 Z M 101.191406 212.636719 " fill-opacity="1" fill-rule="nonzero"/><path fill="rgb(36.468506%, 61.178589%, 92.549133%)" d="M 220.238281 194.78125 L 136.90625 194.78125 C 135.261719 194.78125 133.929688 193.445312 133.929688 191.804688 C 133.929688 190.160156 135.261719 188.828125 136.90625 188.828125 L 220.238281 188.828125 C 221.882812 188.828125 223.214844 190.160156 223.214844 191.804688 C 223.214844 193.445312 221.882812 194.78125 220.238281 194.78125 Z M 220.238281 194.78125 " fill-opacity="1" fill-rule="nonzero"/><path fill="rgb(36.468506%, 61.178589%, 92.549133%)" d="M 238.09375 194.78125 L 232.144531 194.78125 C 230.5 194.78125 229.167969 193.445312 229.167969 191.804688 C 229.167969 190.160156 230.5 188.828125 232.144531 188.828125 L 238.09375 188.828125 C 239.738281 188.828125 241.070312 190.160156 241.070312 191.804688 C 241.070312 193.445312 239.738281 194.78125 238.09375 194.78125 Z M 238.09375 194.78125 " fill-opacity="1" fill-rule="nonzero"/><path fill="rgb(36.468506%, 61.178589%, 92.549133%)" d="M 125 194.78125 L 59.523438 194.78125 C 57.882812 194.78125 56.546875 193.445312 56.546875 191.804688 C 56.546875 190.160156 57.882812 188.828125 59.523438 188.828125 L 125 188.828125 C 126.644531 188.828125 127.976562 190.160156 127.976562 191.804688 C 127.976562 193.445312 126.644531 194.78125 125 194.78125 Z M 125 194.78125 " fill-opacity="1" fill-rule="nonzero"/><path fill="rgb(100%, 80.778503%, 32.939148%)" d="M 71.429688 230.492188 L 47.617188 230.492188 C 45.976562 230.492188 44.644531 229.160156 44.644531 227.519531 C 44.644531 225.875 45.976562 224.542969 47.617188 224.542969 L 71.429688 224.542969 C 73.070312 224.542969 74.40625 225.875 74.40625 227.519531 C 74.40625 229.160156 73.070312 230.492188 71.429688 230.492188 Z M 71.429688 230.492188 " fill-opacity="1" fill-rule="nonzero"/><path fill="rgb(62.748718%, 83.139038%, 40.779114%)" d="M 214.296875 176.921875 L 178.582031 176.921875 C 176.941406 176.921875 175.605469 175.589844 175.605469 173.945312 C 175.605469 172.304688 176.941406 170.96875 178.582031 170.96875 L 214.296875 170.96875 C 215.941406 170.96875 217.273438 172.304688 217.273438 173.945312 C 217.273438 175.589844 215.941406 176.921875 214.296875 176.921875 Z M 214.296875 176.921875 " fill-opacity="1" fill-rule="nonzero"/><path fill="rgb(30.979919%, 75.689697%, 91.369629%)" d="M 261.917969 159.066406 L 220.25 159.066406 C 218.605469 159.066406 217.273438 157.730469 217.273438 156.089844 C 217.273438 154.445312 218.605469 153.113281 220.25 153.113281 L 261.917969 153.113281 C 263.558594 153.113281 264.894531 154.445312 264.894531 156.089844 C 264.894531 157.730469 263.558594 159.066406 261.917969 159.066406 Z M 261.917969 159.066406 " fill-opacity="1" fill-rule="nonzero"/><path fill="rgb(30.979919%, 75.689697%, 91.369629%)" d="M 142.867188 159.066406 L 71.441406 159.066406 C 69.796875 159.066406 68.464844 157.730469 68.464844 156.089844 C 68.464844 154.445312 69.796875 153.113281 71.441406 153.113281 L 142.867188 153.113281 C 144.511719 153.113281 145.84375 154.445312 145.84375 156.089844 C 145.84375 157.730469 144.511719 159.066406 142.867188 159.066406 Z M 142.867188 159.066406 " fill-opacity="1" fill-rule="nonzero"/><path fill="rgb(79.998779%, 81.959534%, 85.099792%)" d="M 20.832031 156.058594 C 20.832031 154.417969 19.5 153.082031 17.855469 153.082031 L 17.855469 159.035156 C 19.5 159.035156 20.832031 157.703125 20.832031 156.058594 Z M 20.832031 156.058594 " fill-opacity="1" fill-rule="nonzero"/><path fill="rgb(79.998779%, 81.959534%, 85.099792%)" d="M 20.832031 173.917969 C 20.832031 172.273438 19.5 170.941406 17.855469 170.941406 L 17.855469 176.894531 C 19.5 176.894531 20.832031 175.558594 20.832031 173.917969 Z M 20.832031 173.917969 " fill-opacity="1" fill-rule="nonzero"/><path fill="rgb(79.998779%, 81.959534%, 85.099792%)" d="M 20.832031 191.773438 C 20.832031 190.132812 19.5 188.796875 17.855469 188.796875 L 17.855469 194.75 C 19.5 194.75 20.832031 193.417969 20.832031 191.773438 Z M 20.832031 191.773438 " fill-opacity="1" fill-rule="nonzero"/><path fill="rgb(79.998779%, 81.959534%, 85.099792%)" d="M 20.832031 209.632812 C 20.832031 207.988281 19.5 206.65625 17.855469 206.65625 L 17.855469 212.605469 C 19.5 212.605469 20.832031 211.273438 20.832031 209.632812 Z M 20.832031 209.632812 " fill-opacity="1" fill-rule="nonzero"/><path fill="rgb(79.998779%, 81.959534%, 85.099792%)" d="M 20.832031 227.488281 C 20.832031 225.84375 19.5 224.511719 17.855469 224.511719 L 17.855469 230.464844 C 19.5 230.464844 20.832031 229.132812 20.832031 227.488281 Z M 20.832031 227.488281 " fill-opacity="1" fill-rule="nonzero"/><path fill="rgb(79.998779%, 81.959534%, 85.099792%)" d="M 20.832031 138.203125 C 20.832031 136.558594 19.5 135.226562 17.855469 135.226562 L 17.855469 141.179688 C 19.5 141.179688 20.832031 139.84375 20.832031 138.203125 Z M 20.832031 138.203125 " fill-opacity="1" fill-rule="nonzero"/><path fill="rgb(79.998779%, 81.959534%, 85.099792%)" d="M 20.832031 120.34375 C 20.832031 118.703125 19.5 117.367188 17.855469 117.367188 L 17.855469 123.320312 C 19.5 123.320312 20.832031 121.988281 20.832031 120.34375 Z M 20.832031 120.34375 " fill-opacity="1" fill-rule="nonzero"/><path fill="rgb(79.998779%, 81.959534%, 85.099792%)" d="M 20.832031 102.488281 C 20.832031 100.84375 19.5 99.511719 17.855469 99.511719 L 17.855469 105.464844 C 19.5 105.464844 20.832031 104.132812 20.832031 102.488281 Z M 20.832031 102.488281 " fill-opacity="1" fill-rule="nonzero"/><path fill="rgb(79.998779%, 81.959534%, 85.099792%)" d="M 20.832031 84.632812 C 20.832031 82.988281 19.5 81.65625 17.855469 81.65625 L 17.855469 87.605469 C 19.5 87.605469 20.832031 86.273438 20.832031 84.632812 Z M 20.832031 84.632812 " fill-opacity="1" fill-rule="nonzero"/><path fill="rgb(79.998779%, 81.959534%, 85.099792%)" d="M 20.832031 66.773438 C 20.832031 65.132812 19.5 63.796875 17.855469 63.796875 L 17.855469 69.75 C 19.5 69.75 20.832031 68.417969 20.832031 66.773438 Z M 20.832031 66.773438 " fill-opacity="1" fill-rule="nonzero"/></svg>