<svg xmlns="http://www.w3.org/2000/svg" width="375" viewBox="0 0 375 375" height="375" version="1.0"><defs><clipPath id="a"><path d="M 2.808594 2.808594 L 372.558594 2.808594 L 372.558594 372.558594 L 2.808594 372.558594 Z M 2.808594 2.808594"/></clipPath><clipPath id="b"><path d="M 38.925781 56.757812 L 271 56.757812 L 271 273 L 38.925781 273 Z M 38.925781 56.757812"/></clipPath><clipPath id="c"><path d="M 131 103 L 335.925781 103 L 335.925781 318.507812 L 131 318.507812 Z M 131 103"/></clipPath></defs><g clip-path="url(#a)"><path fill="#980026" d="M 187.683594 21.296875 C 279.4375 21.296875 354.074219 95.933594 354.074219 187.683594 C 354.074219 279.4375 279.4375 354.074219 187.683594 354.074219 C 95.933594 354.074219 21.296875 279.4375 21.296875 187.683594 C 21.296875 95.933594 95.933594 21.296875 187.683594 21.296875 M 187.683594 2.808594 C 85.578125 2.808594 2.808594 85.578125 2.808594 187.683594 C 2.808594 289.792969 85.578125 372.558594 187.683594 372.558594 C 289.792969 372.558594 372.558594 289.792969 372.558594 187.683594 C 372.558594 85.578125 289.792969 2.808594 187.683594 2.808594 Z M 187.683594 2.808594"/></g><g clip-path="url(#b)"><path fill="#980026" d="M 270.839844 133.417969 C 270.839844 91.171875 236.554688 56.804688 194.410156 56.804688 L 115.355469 56.804688 C 73.214844 56.804688 38.925781 91.171875 38.925781 133.417969 L 38.925781 154.339844 C 38.925781 187.292969 59.835938 216.460938 90.949219 226.925781 L 94.007812 227.953125 L 92.390625 230.753906 C 88.242188 237.925781 82.605469 249.199219 75.160156 265.210938 C 74.261719 267.128906 74.664062 269.429688 76.15625 270.933594 C 77.636719 272.417969 79.996094 272.835938 81.851562 271.972656 L 171.398438 230.953125 L 194.410156 230.953125 C 236.554688 230.953125 270.839844 196.582031 270.839844 154.339844 Z M 260.699219 154.339844 C 260.699219 190.980469 230.960938 220.796875 194.410156 220.796875 L 170.292969 220.796875 C 169.574219 220.796875 168.84375 220.957031 168.1875 221.257812 L 90.300781 256.9375 L 93.671875 250.226562 C 96.75 244.097656 102.320312 233.289062 104.996094 229.792969 L 105.296875 229.398438 L 105.722656 229.140625 C 107.054688 228.332031 107.929688 226.988281 108.125 225.441406 C 108.472656 222.746094 106.644531 220.261719 103.972656 219.789062 C 72.160156 214.214844 49.066406 186.6875 49.066406 154.339844 L 49.066406 133.417969 C 49.066406 96.773438 78.800781 66.957031 115.351562 66.957031 L 194.410156 66.957031 C 230.960938 66.957031 260.695312 96.773438 260.695312 133.417969 L 260.695312 154.339844 Z M 260.699219 154.339844"/></g><path fill="#980026" d="M 95.144531 131.210938 C 87.199219 131.210938 80.738281 137.683594 80.738281 145.636719 C 80.738281 153.59375 87.199219 160.066406 95.144531 160.066406 C 103.085938 160.066406 109.550781 153.59375 109.550781 145.636719 C 109.550781 137.683594 103.085938 131.210938 95.144531 131.210938 Z M 95.144531 131.210938"/><path fill="#980026" d="M 214.621094 131.210938 C 206.679688 131.210938 200.21875 137.683594 200.21875 145.636719 C 200.21875 153.59375 206.679688 160.066406 214.621094 160.066406 C 222.566406 160.066406 229.027344 153.59375 229.027344 145.636719 C 229.027344 137.683594 222.566406 131.210938 214.621094 131.210938 Z M 214.621094 131.210938"/><path fill="#980026" d="M 154.882812 131.210938 C 146.9375 131.210938 140.476562 137.683594 140.476562 145.636719 C 140.476562 153.59375 146.941406 160.066406 154.882812 160.066406 C 162.824219 160.066406 169.289062 153.59375 169.289062 145.636719 C 169.289062 137.683594 162.828125 131.210938 154.882812 131.210938 Z M 154.882812 131.210938"/><g clip-path="url(#c)"><path fill="#980026" d="M 141.644531 253.667969 L 131.207031 258.449219 C 144.519531 269.738281 161.679688 276.597656 180.441406 276.597656 L 203.457031 276.597656 L 293.003906 317.621094 C 294.859375 318.484375 297.21875 318.066406 298.699219 316.582031 C 300.1875 315.078125 300.589844 312.777344 299.695312 310.859375 C 292.25 294.847656 286.613281 283.574219 282.464844 276.398438 L 280.847656 273.601562 L 283.90625 272.574219 C 315.019531 262.109375 335.925781 232.9375 335.925781 199.984375 L 335.925781 179.066406 C 335.925781 141.726562 309.117188 110.632812 273.796875 103.894531 C 275.148438 107.539062 276.246094 111.300781 277.09375 115.15625 C 277.113281 115.160156 277.132812 115.167969 277.148438 115.175781 C 277.128906 115.167969 277.109375 115.160156 277.085938 115.152344 C 278.375 121.035156 279.101562 127.152344 279.101562 133.429688 L 279.101562 154.351562 C 279.101562 201.148438 241.117188 239.222656 194.421875 239.222656 L 173.203125 239.222656 M 266.726562 271.085938 L 266.726562 271.082031"/></g></svg>