<svg xmlns="http://www.w3.org/2000/svg" width="375" viewBox="0 0 375 375" height="375" version="1.0"><defs><clipPath id="a"><path d="M 3.140625 17 L 372.140625 17 L 372.140625 358 L 3.140625 358 Z M 3.140625 17"/></clipPath></defs><g clip-path="url(#a)"><path fill="#FFF" d="M 20.601562 31.925781 L 354.613281 31.925781 C 356.25 31.925781 357.5625 33.203125 357.5625 34.839844 L 357.5625 260.824219 C 357.5625 262.429688 356.25 263.707031 354.613281 263.707031 L 20.601562 263.707031 C 18.996094 263.707031 17.683594 262.429688 17.683594 260.824219 L 17.683594 34.839844 C 17.683594 33.203125 18.996094 31.925781 20.601562 31.925781 Z M 10.445312 17.386719 C 6.414062 17.386719 3.140625 20.628906 3.140625 24.65625 L 3.140625 271.042969 C 3.140625 275.070312 6.414062 278.3125 10.414062 278.3125 C 10.445312 278.3125 10.445312 278.3125 10.445312 278.3125 L 150.71875 278.3125 C 154.75 278.3125 158.023438 281.585938 158.023438 285.613281 L 158.023438 298.84375 C 158.023438 322.976562 138.433594 342.558594 114.292969 342.558594 L 110.851562 342.558594 L 110.851562 357.492188 L 264.425781 357.492188 L 264.425781 342.558594 L 260.988281 342.558594 C 236.84375 342.558594 217.253906 322.976562 217.253906 298.84375 L 217.253906 285.613281 C 217.253906 281.585938 220.53125 278.3125 224.558594 278.3125 L 364.867188 278.3125 C 368.863281 278.3125 372.140625 275.070312 372.140625 271.042969 L 372.140625 24.65625 C 372.140625 20.628906 368.863281 17.386719 364.867188 17.386719 L 10.445312 17.386719"/></g><path fill="#FFF" d="M 65.90625 210.589844 C 63.582031 210.625 61.746094 212.523438 61.777344 214.847656 C 61.8125 217.109375 63.644531 218.941406 65.90625 218.976562 L 142.433594 218.976562 C 144.757812 218.941406 146.59375 217.042969 146.558594 214.75 C 146.527344 212.457031 144.691406 210.625 142.433594 210.589844 L 65.90625 210.589844"/><path fill="#FFF" d="M 65.90625 192.875 C 63.582031 192.910156 61.746094 194.808594 61.777344 197.132812 C 61.8125 199.390625 63.644531 201.226562 65.90625 201.257812 L 142.433594 201.257812 C 144.757812 201.226562 146.59375 199.328125 146.558594 197.035156 C 146.527344 194.742188 144.691406 192.910156 142.433594 192.875 L 65.90625 192.875"/><path fill="#FFF" d="M 108.363281 64.933594 L 108.363281 115.625 L 152.257812 140.941406 C 164.90625 114.382812 153.667969 82.617188 127.101562 69.976562 C 121.203125 67.160156 114.847656 65.460938 108.363281 64.933594"/><path fill="#FFF" d="M 99.976562 64.933594 L 99.976562 120.441406 L 148.066406 148.210938 C 131.390625 172.441406 98.238281 178.566406 73.996094 161.898438 C 49.757812 145.230469 43.597656 112.089844 60.273438 87.859375 C 69.378906 74.628906 83.957031 66.210938 99.976562 64.933594"/><path fill="#FFF" d="M 263.542969 131.050781 L 245.261719 102.101562 C 242.804688 98.171875 237.628906 97.027344 233.699219 99.484375 C 232.945312 99.941406 232.289062 100.53125 231.734375 101.21875 L 208.148438 129.609375 L 201.660156 124.238281 L 225.28125 95.847656 C 231.210938 88.742188 241.789062 87.757812 248.898438 93.6875 C 250.242188 94.800781 251.421875 96.140625 252.371094 97.617188 L 270.652344 126.5625 C 273.140625 130.492188 278.285156 131.671875 282.214844 129.183594 C 283.101562 128.628906 283.851562 127.9375 284.441406 127.121094 L 311.566406 90.902344 L 307.539062 87.890625 L 322.871094 82.78125 L 322.28125 98.957031 L 318.285156 95.945312 L 291.160156 132.132812 C 285.621094 139.5625 275.105469 141.070312 267.703125 135.535156 C 266.066406 134.292969 264.65625 132.785156 263.574219 131.050781 L 263.542969 131.050781"/><path fill="#FFF" d="M 303.640625 128.726562 L 319.625 128.726562 L 319.625 204.761719 L 303.640625 204.761719 L 303.640625 128.726562"/><path fill="#FFF" d="M 266.589844 204.761719 L 266.589844 161.503906 L 282.609375 161.503906 L 282.609375 204.761719 L 266.589844 204.761719"/><path fill="#FFF" d="M 229.539062 204.761719 L 229.539062 119.128906 L 245.558594 119.128906 L 245.558594 204.761719 L 229.539062 204.761719"/><path fill="#FFF" d="M 208.507812 204.761719 L 192.519531 204.761719 L 192.519531 143.265625 L 208.507812 143.265625 L 208.507812 204.761719"/></svg>