<svg xmlns="http://www.w3.org/2000/svg" width="375" viewBox="0 0 375 375" height="375" version="1.0"><defs><clipPath id="a"><path d="M 3.160156 212 L 164 212 L 164 372.160156 L 3.160156 372.160156 Z M 3.160156 212"/></clipPath><clipPath id="b"><path d="M 113 3.160156 L 372.160156 3.160156 L 372.160156 372.160156 L 113 372.160156 Z M 113 3.160156"/></clipPath><clipPath id="c"><path d="M 64 3.160156 L 121 3.160156 L 121 200 L 64 200 Z M 64 3.160156"/></clipPath></defs><path fill="#F9FFFC" d="M 93.730469 269.867188 C 96.0625 267.398438 95.957031 263.507812 93.484375 261.171875 C 91.019531 258.839844 87.125 258.945312 84.789062 261.417969 C 82.457031 263.882812 82.5625 267.777344 85.035156 270.113281 C 87.5 272.445312 91.394531 272.332031 93.730469 269.867188 Z M 93.730469 269.867188"/><path fill="#F9FFFC" d="M 89.9375 249.332031 C 93.332031 249.234375 95.96875 245.03125 95.820312 239.933594 C 95.679688 234.84375 92.808594 230.789062 89.414062 230.886719 C 86.019531 230.984375 83.378906 235.1875 83.527344 240.285156 C 83.675781 245.378906 86.542969 249.429688 89.9375 249.332031 Z M 89.9375 249.332031"/><g clip-path="url(#a)"><path fill="#F9FFFC" d="M 113.859375 275.578125 L 113.859375 218.410156 C 113.859375 215.015625 111.105469 212.257812 107.710938 212.257812 L 58.507812 212.257812 C 55.113281 212.257812 52.359375 215.015625 52.359375 218.410156 L 52.359375 275.578125 L 10.046875 324.945312 C 5.605469 330.128906 3.160156 336.734375 3.160156 343.5625 C 3.160156 359.332031 15.988281 372.160156 31.757812 372.160156 L 134.460938 372.160156 C 150.230469 372.160156 163.058594 359.332031 163.058594 343.5625 C 163.058594 336.734375 160.613281 330.125 156.171875 324.953125 Z M 63.175781 281.859375 C 64.136719 280.746094 64.660156 279.324219 64.660156 277.863281 L 64.660156 224.558594 L 101.558594 224.558594 L 101.558594 277.863281 C 101.558594 279.332031 102.082031 280.753906 103.042969 281.863281 L 132.992188 316.808594 L 130.207031 316.808594 C 120.09375 316.808594 110.167969 315.011719 100.710938 311.457031 C 80.925781 304.042969 59.617188 303.410156 39.621094 309.335938 Z M 63.175781 281.859375"/></g><g clip-path="url(#b)"><path fill="#F9FFFC" d="M 366.007812 243.007812 L 359.859375 243.007812 L 359.859375 126.160156 C 359.859375 122.765625 357.105469 120.007812 353.710938 120.007812 L 298.359375 120.007812 L 298.359375 97.960938 L 315.0625 81.3125 C 316.21875 80.15625 316.871094 78.589844 316.871094 76.960938 L 316.871094 63.464844 C 324.011719 60.921875 329.171875 54.15625 329.171875 46.148438 C 329.171875 38.117188 323.988281 31.34375 316.808594 28.8125 L 316.808594 9.308594 C 316.808594 5.914062 314.054688 3.160156 310.660156 3.160156 C 307.265625 3.160156 304.507812 5.914062 304.507812 9.308594 L 304.507812 28.855469 C 297.398438 31.417969 292.269531 38.164062 292.269531 46.152344 C 292.269531 54.160156 297.429688 60.925781 304.570312 63.472656 L 304.570312 74.414062 L 287.867188 91.0625 C 286.710938 92.207031 286.058594 93.773438 286.058594 95.410156 L 286.058594 120.007812 L 243.007812 120.007812 L 243.007812 97.960938 L 259.652344 81.375 C 260.808594 80.21875 261.460938 78.652344 261.460938 77.019531 L 261.460938 63.464844 C 268.597656 60.921875 273.757812 54.15625 273.757812 46.148438 C 273.757812 35.976562 265.480469 27.699219 255.308594 27.699219 C 247.277344 27.699219 240.507812 32.882812 237.972656 40.058594 L 163.058594 40.058594 C 161.945312 40.058594 160.851562 40.359375 159.890625 40.9375 L 129.140625 59.390625 C 127.292969 60.496094 126.160156 62.5 126.160156 64.660156 L 126.160156 90.390625 C 119.019531 92.9375 113.859375 99.703125 113.859375 107.710938 C 113.859375 115.714844 119.019531 122.480469 126.160156 125.027344 L 126.160156 193.808594 C 126.160156 197.203125 128.914062 199.960938 132.308594 199.960938 C 135.703125 199.960938 138.460938 197.203125 138.460938 193.808594 L 138.460938 125.027344 C 145.601562 122.480469 150.757812 115.714844 150.757812 107.710938 C 150.757812 99.703125 145.601562 92.9375 138.460938 90.390625 L 138.460938 68.140625 L 164.761719 52.359375 L 238.007812 52.359375 C 239.878906 57.542969 243.96875 61.617188 249.160156 63.464844 L 249.160156 74.46875 L 232.515625 91.054688 C 231.363281 92.207031 230.710938 93.773438 230.710938 95.410156 L 230.710938 120.007812 L 193.808594 120.007812 C 190.414062 120.007812 187.660156 122.765625 187.660156 126.160156 L 187.660156 243.007812 L 175.359375 243.007812 C 171.964844 243.007812 169.210938 245.765625 169.210938 249.160156 C 169.210938 266.113281 183.003906 279.910156 199.960938 279.910156 L 230.710938 279.910156 L 230.710938 304.507812 C 230.710938 306.144531 231.363281 307.714844 232.515625 308.863281 L 249.160156 325.449219 L 249.160156 336.453125 C 242.019531 339 236.859375 345.761719 236.859375 353.769531 C 236.859375 363.941406 245.136719 372.222656 255.308594 372.222656 C 265.480469 372.222656 273.757812 363.941406 273.757812 353.769531 C 273.757812 345.761719 268.597656 339 261.460938 336.453125 L 261.460938 322.898438 C 261.460938 321.261719 260.808594 319.695312 259.652344 318.542969 L 243.007812 301.957031 L 243.007812 279.910156 L 286.058594 279.910156 L 286.058594 304.507812 C 286.058594 306.144531 286.710938 307.714844 287.867188 308.863281 L 304.570312 325.511719 L 304.570312 336.453125 C 297.429688 339 292.269531 345.761719 292.269531 353.769531 C 292.269531 363.941406 300.550781 372.222656 310.722656 372.222656 C 320.894531 372.222656 329.171875 363.941406 329.171875 353.769531 C 329.171875 345.761719 324.011719 339 316.871094 336.453125 L 316.871094 322.960938 C 316.871094 321.324219 316.21875 319.753906 315.0625 318.605469 L 298.359375 301.957031 L 298.359375 279.910156 L 341.410156 279.910156 C 358.363281 279.910156 372.160156 266.113281 372.160156 249.160156 C 372.160156 245.765625 369.402344 243.007812 366.007812 243.007812 Z M 357.492188 255.308594 C 353.191406 259.105469 347.609375 261.460938 341.410156 261.460938 L 199.960938 261.460938 C 193.765625 261.460938 188.175781 259.105469 183.878906 255.308594 Z M 286.058594 187.660156 L 286.058594 175.359375 C 286.058594 171.964844 288.816406 169.210938 292.210938 169.210938 L 316.808594 169.210938 C 320.203125 169.210938 322.960938 171.964844 322.960938 175.359375 L 322.960938 224.558594 L 335.257812 224.558594 C 338.652344 224.558594 341.410156 227.316406 341.410156 230.710938 C 341.410156 234.105469 338.652344 236.859375 335.257812 236.859375 L 218.410156 236.859375 C 215.015625 236.859375 212.257812 234.105469 212.257812 230.710938 L 212.257812 181.507812 C 212.257812 178.113281 215.015625 175.359375 218.410156 175.359375 L 236.859375 175.359375 L 236.859375 150.757812 C 236.859375 147.363281 239.613281 144.609375 243.007812 144.609375 L 267.609375 144.609375 C 271.003906 144.609375 273.757812 147.363281 273.757812 150.757812 L 273.757812 187.660156 Z M 286.058594 187.660156"/></g><path fill="#F9FFFC" d="M 224.558594 187.660156 L 236.859375 187.660156 L 236.859375 224.558594 L 224.558594 224.558594 Z M 224.558594 187.660156"/><path fill="#F9FFFC" d="M 273.757812 199.960938 L 286.058594 199.960938 L 286.058594 224.558594 L 273.757812 224.558594 Z M 273.757812 199.960938"/><path fill="#F9FFFC" d="M 249.160156 181.507812 L 249.160156 224.558594 L 261.460938 224.558594 L 261.460938 156.910156 L 249.160156 156.910156 Z M 249.160156 181.507812"/><path fill="#F9FFFC" d="M 310.660156 181.507812 L 298.359375 181.507812 L 298.359375 224.558594 L 310.660156 224.558594 Z M 310.660156 181.507812"/><path fill="#F9FFFC" d="M 101.558594 169.210938 L 101.558594 193.808594 C 101.558594 197.203125 104.316406 199.960938 107.710938 199.960938 C 111.105469 199.960938 113.859375 197.203125 113.859375 193.808594 L 113.859375 169.210938 C 113.859375 165.816406 111.105469 163.058594 107.710938 163.058594 C 104.316406 163.058594 101.558594 165.816406 101.558594 169.210938 Z M 101.558594 169.210938"/><path fill="#F9FFFC" d="M 52.359375 169.210938 L 52.359375 193.808594 C 52.359375 197.203125 55.113281 199.960938 58.507812 199.960938 C 61.902344 199.960938 64.660156 197.203125 64.660156 193.808594 L 64.660156 169.210938 C 64.660156 165.816406 61.902344 163.058594 58.507812 163.058594 C 55.113281 163.058594 52.359375 165.816406 52.359375 169.210938 Z M 52.359375 169.210938"/><path fill="#F9FFFC" d="M 33.910156 193.808594 C 37.304688 193.808594 40.058594 191.054688 40.058594 187.660156 L 40.058594 140.164062 L 57.628906 110.875 C 58.207031 109.917969 58.507812 108.824219 58.507812 107.710938 L 58.507812 75.828125 C 65.648438 73.28125 70.808594 66.515625 70.808594 58.507812 C 70.808594 48.335938 62.53125 40.058594 52.359375 40.058594 C 42.1875 40.058594 33.910156 48.335938 33.910156 58.507812 C 33.910156 66.515625 39.070312 73.28125 46.210938 75.828125 L 46.210938 106.007812 L 28.640625 135.292969 C 28.0625 136.25 27.757812 137.347656 27.757812 138.460938 L 27.757812 187.660156 C 27.757812 191.054688 30.515625 193.808594 33.910156 193.808594 Z M 33.910156 193.808594"/><g clip-path="url(#c)"><path fill="#F9FFFC" d="M 64.660156 156.910156 C 64.660156 164.917969 69.820312 171.683594 76.960938 174.226562 L 76.960938 193.808594 C 76.960938 197.203125 79.714844 199.960938 83.109375 199.960938 C 86.503906 199.960938 89.257812 197.203125 89.257812 193.808594 L 89.257812 174.226562 C 96.398438 171.683594 101.558594 164.917969 101.558594 156.910156 C 101.558594 148.902344 96.398438 142.136719 89.257812 139.589844 L 89.257812 109.414062 L 106.828125 80.125 C 107.40625 79.167969 107.710938 78.074219 107.710938 76.960938 L 107.710938 38.929688 C 114.851562 36.382812 120.007812 29.617188 120.007812 21.609375 C 120.007812 11.4375 111.730469 3.160156 101.558594 3.160156 C 91.386719 3.160156 83.109375 11.4375 83.109375 21.609375 C 83.109375 29.617188 88.269531 36.382812 95.410156 38.929688 L 95.410156 75.257812 L 77.839844 104.542969 C 77.261719 105.5 76.960938 106.597656 76.960938 107.710938 L 76.960938 139.589844 C 69.820312 142.136719 64.660156 148.902344 64.660156 156.910156 Z M 64.660156 156.910156"/></g></svg>