<svg xmlns="http://www.w3.org/2000/svg" width="375" viewBox="0 0 375 375" height="375" version="1.0"><defs><clipPath id="a"><path d="M 0.214844 12 L 374.796875 12 L 374.796875 374.921875 L 0.214844 374.921875 Z M 0.214844 12"/></clipPath><clipPath id="b"><path d="M 27 69.703125 L 370 69.703125 L 370 374.921875 L 27 374.921875 Z M 27 69.703125"/></clipPath><clipPath id="c"><path d="M 32 8.183594 L 258 8.183594 L 258 246 L 32 246 Z M 32 8.183594"/></clipPath></defs><path fill="#762700" d="M 172.65625 49.441406 C 164.816406 51.207031 164.421875 69.1875 180.019531 75.023438 L 181.042969 54.9375 C 181.042969 54.9375 180.496094 47.671875 172.65625 49.441406 Z M 254.28125 49.441406 C 246.441406 47.671875 245.894531 54.9375 245.894531 54.9375 L 246.914062 75.023438 C 262.515625 69.1875 262.121094 51.207031 254.28125 49.441406 Z M 221.492188 59.746094 L 221.492188 79.757812 C 221.492188 82.640625 219.152344 84.980469 216.269531 84.980469 L 211.804688 84.980469 C 208.921875 84.980469 206.585938 82.640625 206.585938 79.757812 L 206.585938 59.746094 C 206.585938 56.859375 208.921875 54.523438 211.804688 54.523438 L 216.269531 54.523438 C 219.152344 54.523438 221.492188 56.859375 221.492188 59.746094"/><g clip-path="url(#a)"><path fill="#A43E0C" d="M 209.457031 75.90625 C 209.457031 77.675781 210.894531 79.113281 212.667969 79.113281 L 215.410156 79.113281 C 217.183594 79.113281 218.621094 77.675781 218.621094 75.90625 L 218.621094 63.601562 C 218.621094 61.828125 217.183594 60.386719 215.410156 60.386719 L 212.667969 60.386719 C 210.894531 60.386719 209.457031 61.828125 209.457031 63.601562 Z M 254.757812 141.035156 L 213.234375 233.023438 L 171.710938 141.035156 C 171.710938 141.035156 177.472656 138.800781 181.421875 126.222656 C 183.320312 120.167969 184.9375 114.292969 186.109375 109.820312 C 177.78125 98.617188 175.769531 80.3125 175.769531 57.875 C 175.769531 19.976562 192.773438 12.511719 213.753906 12.511719 C 234.730469 12.511719 251.742188 19.976562 251.742188 57.875 C 251.742188 80.984375 249.59375 99.703125 240.617188 110.804688 C 241.765625 115.132812 243.285156 120.597656 245.046875 126.222656 C 248.992188 138.800781 254.757812 141.035156 254.757812 141.035156 Z M 355.441406 276.625 L 307.328125 252.574219 L 304.191406 374.921875 L 374.789062 374.921875 Z M 96.214844 263.917969 L 133.957031 276.007812 L 133.957031 298.722656 L 101.757812 310.863281 L 89.316406 334.539062 C 85.714844 343.9375 77.835938 352.277344 61.300781 352.769531 C 22.535156 353.921875 25.507812 309.558594 25.507812 309.558594 L 15.769531 187.648438 C 15.769531 187.648438 9.816406 177.769531 7.347656 171.539062 C 4.878906 165.304688 0.953125 150.671875 0.953125 150.671875 C 0.953125 150.671875 -1.054688 143.386719 1.550781 140.730469 C 2.207031 140.054688 3.890625 138.835938 6.03125 137.394531 C 5.824219 134.835938 6.0625 131.765625 7.933594 129.863281 C 9.179688 128.59375 10.890625 127.15625 12.597656 125.8125 C 12.449219 122.613281 12.769531 119.484375 14.246094 117.980469 C 15.9375 116.257812 18.472656 114.230469 20.714844 112.535156 C 20.714844 112.507812 20.710938 112.480469 20.707031 112.457031 C 19.84375 101.964844 25.132812 101.300781 27.101562 102.050781 C 29.058594 102.804688 33.632812 131.046875 33.632812 131.046875 L 38.042969 145.582031 C 38.867188 140.875 39.90625 131.03125 39.050781 127.628906 C 37.570312 121.761719 42.765625 118.375 42.765625 118.375 C 42.765625 118.375 59.761719 143.9375 49.734375 173.90625 L 68.503906 234.183594 L 96.214844 263.917969"/></g><g clip-path="url(#b)"><path fill="#980026" d="M 213.464844 124.261719 C 243.5 124.261719 251.484375 102.542969 252.855469 69.769531 L 214.039062 72.207031 L 174.082031 69.753906 C 175.449219 102.539062 183.433594 124.261719 213.464844 124.261719 Z M 322.746094 287.585938 L 327.949219 374.921875 L 97.941406 374.921875 L 102.660156 295.671875 L 102.835938 292.683594 L 85.847656 289.898438 L 68.503906 234.183594 C 69.117188 231.667969 69.75 229.085938 70.394531 226.433594 C 81.378906 181.476562 98.113281 171.53125 107.527344 167.34375 C 116.9375 163.164062 171.710938 141.035156 171.710938 141.035156 L 213.234375 195.058594 L 254.621094 141.214844 C 259.785156 143.300781 309.441406 163.382812 318.363281 167.34375 C 327.777344 171.53125 344.511719 181.476562 355.488281 226.433594 C 366.476562 271.394531 369.542969 283.179688 369.542969 283.179688 Z M 41.246094 119.570312 C 41.246094 123.484375 38.074219 126.65625 34.164062 126.65625 C 30.25 126.65625 27.082031 123.484375 27.082031 119.570312 C 27.082031 115.660156 30.25 112.488281 34.164062 112.488281 C 38.074219 112.488281 41.246094 115.660156 41.246094 119.570312"/></g><path fill="#AFD1D9" d="M 166.679688 67.289062 C 168.875 63.984375 172.058594 61.597656 175.78125 60.402344 C 175.777344 59.746094 175.773438 59.089844 175.773438 58.425781 C 171.398438 59.683594 167.648438 62.410156 165.105469 66.242188 C 162.253906 70.539062 161.253906 75.683594 162.300781 80.734375 C 165.402344 95.734375 171.648438 117.800781 183.820312 137.722656 L 185.433594 136.742188 C 173.410156 117.046875 167.222656 95.203125 164.15625 80.351562 C 163.214844 75.800781 164.109375 71.160156 166.679688 67.289062 Z M 301.441406 229.851562 C 301.441406 228.4375 300.296875 227.292969 298.882812 227.292969 L 243.199219 227.292969 C 241.789062 227.292969 240.644531 228.4375 240.644531 229.851562 L 240.644531 266.144531 C 240.644531 275.242188 248.046875 282.640625 257.148438 282.640625 L 284.9375 282.640625 C 294.039062 282.640625 301.441406 275.242188 301.441406 266.144531 Z M 302.152344 229.851562 L 302.152344 266.144531 C 302.152344 275.632812 294.429688 283.351562 284.9375 283.351562 L 257.148438 283.351562 C 247.65625 283.351562 239.933594 275.632812 239.933594 266.144531 L 239.933594 229.851562 C 239.933594 228.046875 241.398438 226.582031 243.199219 226.582031 L 298.882812 226.582031 C 300.6875 226.582031 302.152344 228.046875 302.152344 229.851562 Z M 36.953125 116.140625 C 36.101562 115.023438 34.867188 114.300781 33.476562 114.117188 C 30.585938 113.734375 27.917969 115.78125 27.523438 118.6875 C 27.328125 120.101562 27.695312 121.503906 28.558594 122.636719 C 29.410156 123.753906 30.644531 124.46875 32.035156 124.660156 C 32.273438 124.6875 32.507812 124.703125 32.734375 124.703125 C 35.34375 124.703125 37.625 122.757812 37.988281 120.089844 C 38.183594 118.671875 37.816406 117.269531 36.953125 116.140625 Z M 44.609375 121.097656 C 43.6875 127.671875 37.613281 132.253906 31.035156 131.335938 C 24.460938 130.414062 19.878906 124.339844 20.796875 117.765625 C 21.714844 111.195312 27.796875 106.609375 34.371094 107.53125 C 40.945312 108.449219 45.527344 114.523438 44.609375 121.097656 Z M 242.332031 136.785156 L 243.945312 137.773438 C 256.128906 117.828125 262.390625 95.746094 265.492188 80.734375 C 266.535156 75.683594 265.539062 70.535156 262.6875 66.242188 C 260.085938 62.324219 256.230469 59.574219 251.738281 58.355469 C 251.738281 59.007812 251.730469 59.65625 251.726562 60.304688 C 255.570312 61.464844 258.859375 63.902344 261.109375 67.285156 C 263.679688 71.160156 264.578125 75.796875 263.636719 80.351562 C 260.5625 95.21875 254.375 117.074219 242.332031 136.785156 Z M 35.007812 117.625 C 35.472656 118.238281 35.671875 118.996094 35.566406 119.757812 C 35.355469 121.328125 33.914062 122.4375 32.367188 122.230469 C 31.617188 122.128906 30.957031 121.746094 30.503906 121.144531 C 30.039062 120.539062 29.839844 119.78125 29.945312 119.015625 C 30.144531 117.570312 31.371094 116.519531 32.777344 116.519531 C 32.898438 116.519531 33.023438 116.527344 33.144531 116.542969 C 33.894531 116.644531 34.554688 117.027344 35.007812 117.625"/><g clip-path="url(#c)"><path fill="#15243A" d="M 236.542969 50.957031 C 236.542969 50.957031 238.589844 47.613281 234.785156 45.574219 C 230.972656 43.53125 223.246094 44.34375 220.789062 45.421875 C 218.332031 46.503906 218.140625 50.546875 218.140625 50.546875 C 218.140625 50.546875 233.375 46.941406 236.542969 50.957031 Z M 223.296875 56.035156 C 223.296875 57.425781 224.425781 58.554688 225.816406 58.554688 C 227.207031 58.554688 228.332031 57.425781 228.332031 56.035156 C 228.332031 54.648438 227.207031 53.523438 225.816406 53.523438 C 224.425781 53.523438 223.296875 54.648438 223.296875 56.035156 Z M 252.589844 54.6875 C 252.472656 54.6875 252.371094 54.695312 252.261719 54.703125 C 251.332031 19.316406 234.707031 8.183594 214.324219 8.179688 C 214.132812 8.179688 213.945312 8.183594 213.753906 8.183594 C 213.5625 8.183594 213.375 8.179688 213.183594 8.179688 C 192.800781 8.183594 176.171875 19.316406 175.242188 54.710938 C 172.875 54.835938 170.988281 56.78125 170.988281 59.183594 C 170.988281 61.585938 172.878906 63.53125 175.25 63.652344 C 175.261719 64.082031 175.265625 64.519531 175.273438 64.941406 C 175.277344 64.941406 178.71875 63.34375 178.71875 53.523438 C 178.71875 43.691406 181.296875 33.984375 186.960938 28.320312 C 191.855469 23.429688 197.488281 29.71875 213.753906 29.71875 C 230.015625 29.71875 235.652344 23.429688 240.542969 28.320312 C 246.210938 33.984375 248.785156 43.691406 248.785156 53.523438 C 248.785156 63.34375 252.230469 64.941406 252.234375 64.941406 C 252.242188 64.523438 252.246094 64.085938 252.253906 63.660156 C 252.363281 63.671875 252.46875 63.679688 252.589844 63.679688 C 255.078125 63.679688 257.089844 61.664062 257.089844 59.183594 C 257.089844 56.699219 255.078125 54.6875 252.589844 54.6875 Z M 207.289062 45.421875 C 204.828125 44.34375 197.105469 43.53125 193.296875 45.574219 C 189.488281 47.613281 191.53125 50.957031 191.53125 50.957031 C 194.703125 46.941406 209.933594 50.546875 209.933594 50.546875 C 209.933594 50.546875 209.746094 46.503906 207.289062 45.421875 Z M 213.894531 166.113281 C 203.5 158.714844 194.335938 148.597656 186.644531 136 L 182.605469 138.464844 C 190.757812 151.820312 200.535156 162.535156 211.671875 170.339844 L 211.671875 179.703125 C 211.671875 179.828125 211.484375 192.5625 204.121094 206.128906 C 194.308594 224.214844 177 235.195312 152.679688 238.773438 C 125.441406 242.777344 104.769531 239.601562 87.625 228.769531 C 65.921875 215.058594 50.679688 189.328125 41.027344 150.105469 C 39.519531 143.988281 38.148438 137.488281 36.925781 130.683594 C 35.46875 131.234375 33.886719 131.503906 32.25 131.441406 C 33.5 138.375 34.894531 145 36.429688 151.238281 C 46.390625 191.703125 62.308594 218.375 85.09375 232.769531 C 98.175781 241.03125 113.609375 245.125 131.910156 245.125 C 138.664062 245.125 145.808594 244.566406 153.367188 243.457031 C 185.710938 238.699219 201.140625 221.652344 208.390625 208.191406 C 216.238281 193.605469 216.402344 180.292969 216.40625 179.71875 L 216.40625 170.152344 C 227.410156 162.371094 237.078125 151.730469 245.160156 138.511719 L 241.121094 136.042969 C 233.433594 148.617188 224.277344 158.726562 213.894531 166.113281 Z M 202.257812 53.523438 C 203.648438 53.523438 204.777344 54.648438 204.777344 56.035156 C 204.777344 57.425781 203.648438 58.554688 202.257812 58.554688 C 200.871094 58.554688 199.746094 57.425781 199.746094 56.035156 C 199.746094 54.648438 200.871094 53.523438 202.257812 53.523438"/></g></svg>