<svg xmlns="http://www.w3.org/2000/svg" width="375" viewBox="0 0 375 375" height="375" version="1.0"><defs><clipPath id="a"><path d="M 2.636719 44.691406 L 372.386719 44.691406 L 372.386719 330.441406 L 2.636719 330.441406 Z M 2.636719 44.691406"/></clipPath></defs><path fill="#F9FFFC" d="M 343.308594 59.125 C 343.308594 59.507812 343.234375 59.875 343.089844 60.230469 C 342.941406 60.582031 342.734375 60.894531 342.464844 61.164062 C 342.191406 61.4375 341.878906 61.644531 341.527344 61.792969 C 341.175781 61.9375 340.804688 62.011719 340.421875 62.011719 C 340.039062 62.011719 339.671875 61.9375 339.320312 61.792969 C 338.964844 61.644531 338.652344 61.4375 338.382812 61.164062 C 338.113281 60.894531 337.902344 60.582031 337.757812 60.230469 C 337.609375 59.875 337.539062 59.507812 337.539062 59.125 C 337.539062 58.742188 337.609375 58.375 337.757812 58.019531 C 337.902344 57.667969 338.113281 57.355469 338.382812 57.082031 C 338.652344 56.8125 338.964844 56.605469 339.320312 56.457031 C 339.671875 56.3125 340.039062 56.238281 340.421875 56.238281 C 340.804688 56.238281 341.175781 56.3125 341.527344 56.457031 C 341.878906 56.605469 342.191406 56.8125 342.464844 57.082031 C 342.734375 57.355469 342.941406 57.667969 343.089844 58.019531 C 343.234375 58.375 343.308594 58.742188 343.308594 59.125 Z M 343.308594 59.125"/><path fill="#F9FFFC" d="M 331.769531 59.125 C 331.769531 59.507812 331.695312 59.875 331.546875 60.230469 C 331.402344 60.582031 331.191406 60.894531 330.921875 61.164062 C 330.652344 61.4375 330.339844 61.644531 329.988281 61.792969 C 329.632812 61.9375 329.265625 62.011719 328.882812 62.011719 C 328.5 62.011719 328.132812 61.9375 327.777344 61.792969 C 327.425781 61.644531 327.113281 61.4375 326.84375 61.164062 C 326.570312 60.894531 326.363281 60.582031 326.21875 60.230469 C 326.070312 59.875 325.996094 59.507812 325.996094 59.125 C 325.996094 58.742188 326.070312 58.375 326.21875 58.019531 C 326.363281 57.667969 326.570312 57.355469 326.84375 57.082031 C 327.113281 56.8125 327.425781 56.605469 327.777344 56.457031 C 328.132812 56.3125 328.5 56.238281 328.882812 56.238281 C 329.265625 56.238281 329.632812 56.3125 329.988281 56.457031 C 330.339844 56.605469 330.652344 56.8125 330.921875 57.082031 C 331.191406 57.355469 331.402344 57.667969 331.546875 58.019531 C 331.695312 58.375 331.769531 58.742188 331.769531 59.125 Z M 331.769531 59.125"/><path fill="#F9FFFC" d="M 320.226562 59.125 C 320.226562 59.507812 320.152344 59.875 320.007812 60.230469 C 319.859375 60.582031 319.652344 60.894531 319.382812 61.164062 C 319.113281 61.4375 318.800781 61.644531 318.445312 61.792969 C 318.09375 61.9375 317.726562 62.011719 317.34375 62.011719 C 316.960938 62.011719 316.589844 61.9375 316.238281 61.792969 C 315.882812 61.644531 315.574219 61.4375 315.300781 61.164062 C 315.03125 60.894531 314.824219 60.582031 314.675781 60.230469 C 314.53125 59.875 314.457031 59.507812 314.457031 59.125 C 314.457031 58.742188 314.53125 58.375 314.675781 58.019531 C 314.824219 57.667969 315.03125 57.355469 315.300781 57.082031 C 315.574219 56.8125 315.882812 56.605469 316.238281 56.457031 C 316.589844 56.3125 316.960938 56.238281 317.34375 56.238281 C 317.726562 56.238281 318.09375 56.3125 318.445312 56.457031 C 318.800781 56.605469 319.113281 56.8125 319.382812 57.082031 C 319.652344 57.355469 319.859375 57.667969 320.007812 58.019531 C 320.152344 58.375 320.226562 58.742188 320.226562 59.125 Z M 320.226562 59.125"/><g clip-path="url(#a)"><path fill="#F9FFFC" d="M 360.617188 44.691406 L 14.402344 44.691406 C 8.058594 44.691406 2.863281 49.886719 2.863281 56.238281 L 2.863281 287.148438 C 2.863281 293.496094 8.058594 298.691406 14.402344 298.691406 L 167.316406 298.691406 L 167.316406 324.671875 L 144.234375 324.671875 C 142.503906 324.671875 141.347656 325.824219 141.347656 327.554688 C 141.347656 329.289062 142.503906 330.441406 144.234375 330.441406 L 230.789062 330.441406 C 232.519531 330.441406 233.671875 329.289062 233.671875 327.554688 C 233.671875 325.824219 232.519531 324.671875 230.789062 324.671875 L 207.707031 324.671875 L 207.707031 298.691406 L 360.617188 298.691406 C 366.964844 298.691406 372.160156 293.496094 372.160156 287.148438 L 372.160156 56.238281 C 372.160156 49.886719 366.964844 44.691406 360.617188 44.691406 Z M 366.390625 287.148438 C 366.390625 290.324219 363.792969 292.921875 360.617188 292.921875 L 14.402344 292.921875 C 11.230469 292.921875 8.632812 290.324219 8.632812 287.148438 L 8.632812 272.714844 L 366.390625 272.714844 Z M 166.160156 187.855469 C 167.316406 188.722656 167.894531 190.453125 166.738281 191.898438 C 166.160156 192.761719 165.296875 193.050781 164.429688 193.050781 C 163.851562 193.050781 163.277344 192.761719 162.699219 192.476562 L 136.734375 174.003906 C 136.15625 173.425781 135.578125 172.558594 135.578125 171.691406 C 135.578125 170.828125 136.15625 169.960938 136.734375 169.382812 L 162.699219 150.910156 C 164.140625 150.046875 165.875 150.332031 166.738281 151.488281 C 167.605469 152.933594 167.316406 154.664062 166.160156 155.53125 L 143.367188 171.691406 Z M 141.347656 217.875 C 143.082031 217.875 144.234375 219.03125 144.234375 220.761719 C 144.234375 222.492188 143.082031 223.648438 141.347656 223.648438 L 79.03125 223.648438 C 77.300781 223.648438 76.144531 222.492188 76.144531 220.761719 C 76.144531 219.03125 77.300781 217.875 79.03125 217.875 Z M 135.289062 243.851562 C 135.289062 245.582031 134.136719 246.738281 132.40625 246.738281 L 70.375 246.738281 C 68.644531 246.738281 67.492188 245.582031 67.492188 243.851562 C 67.492188 242.121094 68.644531 240.964844 70.375 240.964844 L 132.695312 240.964844 C 134.136719 240.964844 135.289062 242.121094 135.289062 243.851562 Z M 111.921875 171.691406 C 113.652344 171.691406 114.804688 172.847656 114.804688 174.578125 C 114.804688 176.3125 113.652344 177.464844 111.921875 177.464844 L 61.429688 177.464844 C 59.699219 177.464844 58.546875 176.3125 58.546875 174.578125 C 58.546875 172.847656 59.699219 171.691406 61.429688 171.691406 Z M 108.746094 154.375 L 37.773438 154.375 C 36.042969 154.375 34.886719 153.21875 34.886719 151.488281 C 34.886719 149.757812 36.042969 148.601562 37.773438 148.601562 L 108.746094 148.601562 C 110.480469 148.601562 111.632812 149.757812 111.632812 151.488281 C 111.632812 153.21875 110.480469 154.375 108.746094 154.375 Z M 64.316406 183.238281 L 93.746094 183.238281 C 95.476562 183.238281 96.628906 184.394531 96.628906 186.125 C 96.628906 187.855469 95.476562 189.011719 93.746094 189.011719 L 64.316406 189.011719 C 62.585938 189.011719 61.429688 187.855469 61.429688 186.125 C 61.429688 184.394531 62.875 183.238281 64.316406 183.238281 Z M 123.75 142.828125 L 46.71875 142.828125 C 44.984375 142.828125 43.832031 141.675781 43.832031 139.941406 C 43.832031 138.210938 44.984375 137.058594 46.71875 137.058594 L 123.75 137.058594 C 125.480469 137.058594 126.636719 138.210938 126.636719 139.941406 C 126.636719 141.675781 125.191406 142.828125 123.75 142.828125 Z M 114.804688 108.191406 L 52.488281 108.191406 C 50.757812 108.191406 49.601562 107.039062 49.601562 105.308594 C 49.601562 103.574219 50.757812 102.421875 52.488281 102.421875 L 114.804688 102.421875 C 116.539062 102.421875 117.691406 103.574219 117.691406 105.308594 C 117.691406 107.039062 116.25 108.191406 114.804688 108.191406 Z M 79.320312 96.648438 L 23.058594 96.648438 C 21.328125 96.648438 20.175781 95.492188 20.175781 93.761719 C 20.175781 92.03125 21.328125 90.875 23.058594 90.875 L 79.320312 90.875 C 81.050781 90.875 82.203125 92.03125 82.203125 93.761719 C 82.203125 95.492188 81.050781 96.648438 79.320312 96.648438 Z M 23.058594 113.964844 L 73.261719 113.964844 C 74.992188 113.964844 76.144531 115.121094 76.144531 116.851562 C 76.144531 118.582031 74.992188 119.738281 73.261719 119.738281 L 23.058594 119.738281 C 21.328125 119.738281 20.175781 118.582031 20.175781 116.851562 C 20.175781 115.121094 21.328125 113.964844 23.058594 113.964844 Z M 23.058594 125.511719 L 82.203125 125.511719 C 83.933594 125.511719 85.089844 126.664062 85.089844 128.398438 C 85.089844 130.128906 83.933594 131.285156 82.203125 131.285156 L 23.058594 131.285156 C 21.328125 131.285156 20.175781 130.128906 20.175781 128.398438 C 20.175781 126.664062 21.328125 125.511719 23.058594 125.511719 Z M 23.058594 160.148438 L 94.035156 160.148438 C 95.765625 160.148438 96.917969 161.300781 96.917969 163.035156 C 96.917969 164.765625 95.765625 165.921875 94.035156 165.921875 L 23.058594 165.921875 C 21.328125 165.921875 20.175781 164.765625 20.175781 163.035156 C 20.175781 161.300781 21.328125 160.148438 23.058594 160.148438 Z M 23.058594 194.785156 L 94.035156 194.785156 C 95.765625 194.785156 96.917969 195.9375 96.917969 197.671875 C 96.917969 199.402344 95.765625 200.558594 94.035156 200.558594 L 23.058594 200.558594 C 21.328125 200.558594 20.175781 199.402344 20.175781 197.671875 C 20.175781 195.9375 21.328125 194.785156 23.058594 194.785156 Z M 23.058594 206.328125 L 90.859375 206.328125 C 92.589844 206.328125 93.746094 207.484375 93.746094 209.214844 C 93.746094 210.949219 92.589844 212.101562 90.859375 212.101562 L 23.058594 212.101562 C 21.328125 212.101562 20.175781 210.949219 20.175781 209.214844 C 20.175781 207.484375 21.328125 206.328125 23.058594 206.328125 Z M 23.058594 229.421875 L 94.035156 229.421875 C 95.765625 229.421875 96.917969 230.574219 96.917969 232.308594 C 96.917969 234.039062 95.765625 235.191406 94.035156 235.191406 L 23.058594 235.191406 C 21.328125 235.191406 20.175781 234.039062 20.175781 232.308594 C 20.175781 230.574219 21.328125 229.421875 23.058594 229.421875 Z M 173.085938 199.691406 L 191.261719 136.191406 C 191.839844 134.746094 193.28125 133.882812 194.722656 134.171875 C 196.167969 134.746094 197.03125 136.191406 196.742188 137.632812 L 178.566406 201.132812 C 178.277344 202.289062 177.125 203.15625 175.683594 203.15625 C 175.394531 203.15625 175.105469 203.15625 174.816406 203.15625 C 173.664062 202.867188 172.796875 201.421875 173.085938 199.691406 Z M 208.863281 155.53125 C 207.707031 154.664062 207.128906 152.933594 208.285156 151.488281 C 209.148438 150.332031 210.882812 149.757812 212.324219 150.910156 L 238.289062 169.382812 C 239.15625 169.960938 239.445312 170.828125 239.445312 171.691406 C 239.445312 172.558594 238.867188 173.425781 238.289062 174.003906 L 212.324219 192.476562 C 211.746094 192.761719 211.167969 193.050781 210.59375 193.050781 C 209.726562 193.050781 208.863281 192.761719 208.285156 191.898438 C 207.417969 190.453125 207.707031 188.722656 208.863281 187.855469 L 231.652344 171.691406 Z M 280.988281 235.191406 C 279.257812 235.191406 278.105469 234.039062 278.105469 232.308594 C 278.105469 230.574219 279.257812 229.421875 280.988281 229.421875 L 351.964844 229.421875 C 353.695312 229.421875 354.847656 230.574219 354.847656 232.308594 C 354.847656 234.039062 353.695312 235.191406 351.964844 235.191406 Z M 307.53125 243.851562 C 307.53125 245.582031 306.378906 246.738281 304.648438 246.738281 L 242.617188 246.738281 C 240.886719 246.738281 239.730469 245.582031 239.730469 243.851562 C 239.730469 242.121094 240.886719 240.964844 242.617188 240.964844 L 304.9375 240.964844 C 306.378906 240.964844 307.53125 242.121094 307.53125 243.851562 Z M 351.964844 212.101562 L 284.164062 212.101562 C 282.433594 212.101562 281.277344 210.949219 281.277344 209.214844 C 281.277344 207.484375 282.433594 206.328125 284.164062 206.328125 L 351.964844 206.328125 C 353.695312 206.328125 354.847656 207.484375 354.847656 209.214844 C 354.847656 210.949219 353.695312 212.101562 351.964844 212.101562 Z M 351.964844 200.558594 L 280.988281 200.558594 C 279.257812 200.558594 278.105469 199.402344 278.105469 197.671875 C 278.105469 195.9375 279.257812 194.785156 280.988281 194.785156 L 351.964844 194.785156 C 353.695312 194.785156 354.847656 195.9375 354.847656 197.671875 C 354.847656 199.402344 353.695312 200.558594 351.964844 200.558594 Z M 313.589844 171.691406 C 315.324219 171.691406 316.476562 172.847656 316.476562 174.578125 C 316.476562 176.3125 315.324219 177.464844 313.589844 177.464844 L 263.101562 177.464844 C 261.371094 177.464844 260.214844 176.3125 260.214844 174.578125 C 260.214844 172.847656 261.371094 171.691406 263.101562 171.691406 Z M 263.390625 151.488281 C 263.390625 149.757812 264.542969 148.601562 266.277344 148.601562 L 337.25 148.601562 C 338.980469 148.601562 340.132812 149.757812 340.132812 151.488281 C 340.132812 153.21875 338.980469 154.375 337.25 154.375 L 266.277344 154.375 C 264.542969 154.375 263.390625 153.21875 263.390625 151.488281 Z M 313.589844 186.125 C 313.589844 187.855469 312.4375 189.011719 310.707031 189.011719 L 280.988281 189.011719 C 279.257812 189.011719 278.105469 187.855469 278.105469 186.125 C 278.105469 184.394531 279.257812 183.238281 280.988281 183.238281 L 310.417969 183.238281 C 312.148438 183.238281 313.589844 184.394531 313.589844 186.125 Z M 351.964844 165.921875 L 280.988281 165.921875 C 279.257812 165.921875 278.105469 164.765625 278.105469 163.035156 C 278.105469 161.300781 279.257812 160.148438 280.988281 160.148438 L 351.964844 160.148438 C 353.695312 160.148438 354.847656 161.300781 354.847656 163.035156 C 354.847656 164.765625 353.695312 165.921875 351.964844 165.921875 Z M 351.964844 131.285156 L 284.164062 131.285156 C 282.433594 131.285156 281.277344 130.128906 281.277344 128.398438 C 281.277344 126.664062 282.433594 125.511719 284.164062 125.511719 L 351.964844 125.511719 C 353.695312 125.511719 354.847656 126.664062 354.847656 128.398438 C 354.847656 130.128906 353.695312 131.285156 351.964844 131.285156 Z M 351.964844 119.738281 L 301.761719 119.738281 C 300.03125 119.738281 298.878906 118.582031 298.878906 116.851562 C 298.878906 115.121094 300.03125 113.964844 301.761719 113.964844 L 351.964844 113.964844 C 353.695312 113.964844 354.847656 115.121094 354.847656 116.851562 C 354.847656 118.582031 353.695312 119.738281 351.964844 119.738281 Z M 351.964844 96.648438 L 287.046875 96.648438 C 285.316406 96.648438 284.164062 95.492188 284.164062 93.761719 C 284.164062 92.03125 285.316406 90.875 287.046875 90.875 L 351.964844 90.875 C 353.695312 90.875 354.847656 92.03125 354.847656 93.761719 C 354.847656 95.492188 353.695312 96.648438 351.964844 96.648438 Z M 322.535156 102.421875 C 324.265625 102.421875 325.421875 103.574219 325.421875 105.308594 C 325.421875 107.039062 324.265625 108.191406 322.535156 108.191406 L 260.214844 108.191406 C 258.484375 108.191406 257.332031 107.039062 257.332031 105.308594 C 257.332031 103.574219 258.484375 102.421875 260.214844 102.421875 Z M 328.304688 137.058594 C 330.035156 137.058594 331.191406 138.210938 331.191406 139.941406 C 331.191406 141.675781 330.035156 142.828125 328.304688 142.828125 L 251.273438 142.828125 C 249.542969 142.828125 248.386719 141.675781 248.386719 139.941406 C 248.386719 138.210938 249.542969 137.058594 251.273438 137.058594 Z M 295.992188 217.875 C 297.722656 217.875 298.878906 219.03125 298.878906 220.761719 C 298.878906 222.492188 297.722656 223.648438 295.992188 223.648438 L 233.671875 223.648438 C 231.941406 223.648438 230.789062 222.492188 230.789062 220.761719 C 230.789062 219.03125 231.941406 217.875 233.671875 217.875 Z M 366.390625 67.785156 L 8.632812 67.785156 L 8.632812 56.238281 C 8.632812 53.0625 11.230469 50.464844 14.402344 50.464844 L 360.617188 50.464844 C 363.792969 50.464844 366.390625 53.0625 366.390625 56.238281 Z M 366.390625 67.785156"/></g></svg>