<svg xmlns="http://www.w3.org/2000/svg" width="375" viewBox="0 0 375 375" height="375" version="1.0"><defs><clipPath id="a"><path d="M 37.699219 4.085938 L 337.5 4.085938 L 337.5 370.835938 L 37.699219 370.835938 Z M 37.699219 4.085938"/></clipPath></defs><g clip-path="url(#a)"><path fill="#980026" d="M 282.886719 127.59375 C 275.820312 127.59375 268.800781 127.59375 261.710938 127.59375 C 260.433594 120.472656 259.144531 113.339844 257.871094 106.1875 C 257.472656 104.03125 253.316406 103.972656 252.984375 106.1875 C 250.957031 119.363281 248.933594 132.503906 246.894531 145.640625 C 243.542969 126.625 240.1875 107.585938 236.828125 88.558594 C 236.429688 86.246094 232.546875 86.5 231.953125 88.558594 C 226.742188 106.355469 221.535156 124.125 216.332031 141.90625 C 214.707031 138.261719 213.085938 134.640625 211.421875 131.011719 C 210.484375 128.683594 209.332031 127.640625 207.1875 127.640625 C 206.933594 127.640625 206.679688 127.640625 206.4375 127.640625 C 206.332031 127.640625 206.25 127.59375 206.15625 127.59375 C 205.964844 127.59375 205.820312 127.59375 205.6875 127.59375 C 205.5 127.59375 205.355469 127.621094 205.191406 127.640625 C 201.246094 127.640625 199.351562 127.640625 195.417969 127.640625 C 194.390625 127.640625 193.148438 128.335938 192.980469 129.324219 C 192.46875 132.15625 191.949219 134.976562 191.453125 137.796875 C 189.410156 124.585938 187.371094 111.394531 185.332031 98.191406 C 184.992188 95.949219 180.839844 96.011719 180.449219 98.191406 C 176.863281 118.691406 173.226562 139.160156 169.625 159.644531 C 164.789062 143.136719 159.960938 126.625 155.148438 110.144531 C 154.4375 107.742188 151.132812 108.175781 150.246094 110.144531 C 147.617188 115.964844 144.992188 121.820312 142.359375 127.640625 C 140.417969 127.640625 138.476562 127.640625 136.542969 127.640625 C 116.726562 88.917969 140.144531 62.765625 166.667969 62.765625 C 182.917969 62.765625 200.3125 72.5625 209.660156 95.273438 C 219.261719 73.050781 236.472656 63.492188 252.515625 63.492188 C 279.03125 63.492188 302.339844 89.566406 282.886719 127.59375 Z M 208.78125 196.757812 C 194.652344 187.789062 182.75 179.019531 172.800781 170.515625 C 176.105469 151.734375 179.421875 132.949219 182.734375 114.167969 C 184.757812 127.328125 186.785156 140.476562 188.808594 153.613281 C 189.152344 155.847656 193.308594 155.816406 193.695312 153.613281 C 194.988281 146.496094 196.261719 139.371094 197.558594 132.226562 C 203.976562 132.226562 200.113281 132.226562 206.546875 132.226562 C 209.160156 138.035156 211.800781 143.878906 214.410156 149.703125 C 215.308594 151.664062 218.613281 152.078125 219.308594 149.703125 C 224.128906 133.183594 228.957031 116.691406 233.773438 100.183594 C 237.410156 120.679688 241.007812 141.148438 244.625 161.640625 C 245.011719 163.808594 249.164062 163.847656 249.507812 161.640625 C 251.550781 148.421875 253.578125 135.214844 255.621094 122.011719 C 256.125 124.84375 256.625 127.679688 257.140625 130.507812 C 257.332031 131.492188 258.542969 132.1875 259.578125 132.1875 C 266.515625 132.1875 273.4375 132.1875 280.355469 132.1875 C 269.011719 151.476562 246.773438 173.59375 208.78125 196.757812 Z M 139.070312 132.226562 C 140.730469 132.226562 142.386719 132.226562 144.050781 132.226562 C 145.269531 132.226562 146.050781 131.523438 146.492188 130.535156 C 148.386719 126.355469 150.277344 122.132812 152.167969 117.929688 C 156.683594 133.371094 161.203125 148.769531 165.710938 164.222656 C 153.574219 152.921875 144.917969 142.191406 139.070312 132.226562 Z M 302.597656 217.492188 C 314.574219 200.730469 337.269531 174.53125 337.269531 118.238281 C 337.269531 61.964844 284.183594 4.117188 188.738281 4.117188 C 104.265625 4.117188 68.921875 76.5625 68.921875 114.882812 C 68.921875 114.882812 74.511719 151.011719 62.929688 165.382812 C 51.355469 179.75 27.984375 197.3125 42.359375 204.902344 C 56.738281 212.484375 62.332031 218.464844 62.332031 226.050781 C 62.332031 233.636719 57.839844 240.472656 63.976562 242.566406 C 70.117188 244.660156 70.570312 246.464844 68.328125 247.804688 C 66.070312 249.15625 59.03125 256.632812 66.375 260.824219 C 73.710938 265.023438 77.753906 271.308594 76.40625 275.503906 C 75.058594 279.695312 62.332031 296.609375 81.207031 301.691406 C 100.070312 306.785156 127.636719 304.097656 136.917969 310.679688 C 146.210938 317.261719 159.683594 352.875 152.195312 370.835938 L 312.636719 370.835938 C 312.636719 370.835938 297.191406 305.359375 295.976562 283.132812 C 295.976562 283.132812 290.609375 234.265625 302.597656 217.492188"/></g></svg>