<svg xmlns="http://www.w3.org/2000/svg" width="375" viewBox="0 0 375 375" height="375" version="1.0"><defs><clipPath id="a"><path d="M 2.808594 2.808594 L 372.558594 2.808594 L 372.558594 372.558594 L 2.808594 372.558594 Z M 2.808594 2.808594"/></clipPath><clipPath id="b"><path d="M 47.542969 47.542969 L 327.292969 47.542969 L 327.292969 327.292969 L 47.542969 327.292969 Z M 47.542969 47.542969"/></clipPath></defs><g clip-path="url(#a)"><path fill="#980026" d="M 187.683594 21.296875 C 279.4375 21.296875 354.074219 95.933594 354.074219 187.683594 C 354.074219 279.4375 279.4375 354.074219 187.683594 354.074219 C 95.933594 354.074219 21.296875 279.4375 21.296875 187.683594 C 21.296875 95.933594 95.933594 21.296875 187.683594 21.296875 M 187.683594 2.808594 C 85.578125 2.808594 2.808594 85.578125 2.808594 187.683594 C 2.808594 289.792969 85.578125 372.558594 187.683594 372.558594 C 289.792969 372.558594 372.558594 289.792969 372.558594 187.683594 C 372.558594 85.578125 289.792969 2.808594 187.683594 2.808594 Z M 187.683594 2.808594"/></g><g clip-path="url(#b)"><path fill="#980026" d="M 318.269531 125.519531 L 308.539062 128.761719 L 307.992188 131.261719 C 306.617188 137.539062 304.152344 143.496094 300.644531 148.960938 L 299.25 151.128906 L 303.851562 160.328125 L 295.691406 168.488281 L 286.472656 163.871094 L 284.324219 165.28125 C 278.859375 168.789062 272.902344 171.253906 266.625 172.613281 L 264.125 173.175781 L 260.878906 182.90625 L 249.316406 182.90625 L 246.074219 173.175781 L 243.574219 172.613281 C 237.296875 171.253906 231.339844 168.789062 225.875 165.28125 L 223.726562 163.871094 L 214.507812 168.488281 L 206.347656 160.328125 L 210.949219 151.128906 L 209.554688 148.960938 C 206.046875 143.496094 203.582031 137.539062 202.207031 131.261719 L 201.660156 128.761719 L 191.929688 125.519531 L 191.929688 113.957031 L 201.660156 110.710938 L 202.207031 108.210938 C 203.582031 101.933594 206.046875 95.976562 209.554688 90.511719 L 210.949219 88.347656 L 206.347656 79.144531 L 214.507812 70.984375 L 223.726562 75.601562 L 225.875 74.191406 C 231.339844 70.683594 237.296875 68.21875 243.574219 66.859375 L 246.074219 66.296875 L 249.316406 56.566406 L 260.878906 56.566406 L 264.125 66.296875 L 266.625 66.859375 C 272.902344 68.21875 278.859375 70.683594 284.324219 74.191406 L 286.472656 75.601562 L 295.691406 70.984375 L 303.851562 79.144531 L 299.25 88.347656 L 300.644531 90.511719 C 304.152344 95.976562 306.617188 101.933594 307.992188 108.210938 L 308.539062 110.710938 L 318.269531 113.957031 Z M 318.269531 264.125 L 56.566406 264.125 L 56.566406 142.296875 C 56.566406 134.824219 62.628906 128.761719 70.101562 128.761719 L 182.90625 128.761719 L 182.90625 132.003906 L 193.992188 135.707031 C 195.457031 141.292969 197.675781 146.617188 200.621094 151.621094 L 195.367188 162.109375 L 212.726562 179.46875 L 223.214844 174.214844 C 228.222656 177.160156 233.542969 179.378906 239.128906 180.824219 L 242.832031 191.929688 L 267.367188 191.929688 L 271.066406 180.824219 C 276.65625 179.378906 281.976562 177.160156 286.984375 174.214844 L 297.472656 179.46875 L 314.832031 162.109375 L 309.578125 151.621094 C 312.523438 146.617188 314.742188 141.292969 316.207031 135.707031 L 318.269531 135.019531 Z M 304.734375 291.195312 L 70.101562 291.195312 C 62.628906 291.195312 56.566406 285.132812 56.566406 277.660156 L 56.566406 273.148438 L 318.269531 273.148438 L 318.269531 277.660156 C 318.269531 285.132812 312.207031 291.195312 304.734375 291.195312 Z M 237.050781 318.269531 L 137.785156 318.269531 L 137.785156 300.21875 L 237.050781 300.21875 Z M 316.207031 103.769531 C 314.742188 98.179688 312.523438 92.859375 309.578125 87.851562 L 314.832031 77.363281 L 297.472656 60.003906 L 286.984375 65.257812 C 281.976562 62.3125 276.65625 60.09375 271.066406 58.648438 L 267.367188 47.542969 L 242.832031 47.542969 L 239.128906 58.648438 C 233.542969 60.09375 228.222656 62.3125 223.214844 65.257812 L 212.726562 60.003906 L 195.367188 77.363281 L 200.621094 87.851562 C 197.675781 92.859375 195.457031 98.179688 193.992188 103.769531 L 182.90625 107.46875 L 182.90625 119.738281 L 70.101562 119.738281 C 57.660156 119.738281 47.542969 129.851562 47.542969 142.296875 L 47.542969 277.660156 C 47.542969 290.101562 57.660156 300.21875 70.101562 300.21875 L 128.761719 300.21875 L 128.761719 318.269531 L 110.710938 318.269531 L 110.710938 327.292969 L 264.125 327.292969 L 264.125 318.269531 L 246.074219 318.269531 L 246.074219 300.21875 L 304.734375 300.21875 C 317.175781 300.21875 327.292969 290.101562 327.292969 277.660156 L 327.292969 107.46875 L 316.207031 103.769531"/></g><path fill="#980026" d="M 255.097656 155.832031 C 235.199219 155.832031 219.003906 139.636719 219.003906 119.738281 C 219.003906 99.835938 235.199219 83.640625 255.097656 83.640625 C 275 83.640625 291.195312 99.835938 291.195312 119.738281 C 291.195312 139.636719 275 155.832031 255.097656 155.832031 Z M 255.097656 74.617188 C 230.210938 74.617188 209.976562 94.847656 209.976562 119.738281 C 209.976562 144.625 230.210938 164.859375 255.097656 164.859375 C 279.988281 164.859375 300.21875 144.625 300.21875 119.738281 C 300.21875 94.847656 279.988281 74.617188 255.097656 74.617188"/><path fill="#980026" d="M 255.097656 128.761719 C 250.128906 128.761719 246.074219 124.707031 246.074219 119.738281 C 246.074219 114.765625 250.128906 110.710938 255.097656 110.710938 C 260.070312 110.710938 264.125 114.765625 264.125 119.738281 C 264.125 124.707031 260.070312 128.761719 255.097656 128.761719 Z M 255.097656 101.6875 C 245.140625 101.6875 237.050781 109.777344 237.050781 119.738281 C 237.050781 129.695312 245.140625 137.785156 255.097656 137.785156 C 265.058594 137.785156 273.148438 129.695312 273.148438 119.738281 C 273.148438 109.777344 265.058594 101.6875 255.097656 101.6875"/><path fill="#980026" d="M 74.617188 155.832031 L 74.617188 160.34375 C 74.617188 165.316406 70.5625 169.371094 65.589844 169.371094 L 65.589844 178.394531 C 70.5625 178.394531 74.617188 182.449219 74.617188 187.417969 L 74.617188 191.929688 C 74.617188 199.402344 80.679688 205.464844 88.152344 205.464844 L 92.664062 205.464844 L 92.664062 196.441406 L 88.152344 196.441406 C 85.667969 196.441406 83.640625 194.414062 83.640625 191.929688 L 83.640625 187.417969 C 83.640625 182.023438 81.277344 177.195312 77.523438 173.882812 C 81.277344 170.566406 83.640625 165.738281 83.640625 160.34375 L 83.640625 155.832031 C 83.640625 153.347656 85.667969 151.320312 88.152344 151.320312 L 92.664062 151.320312 L 92.664062 142.296875 L 88.152344 142.296875 C 80.679688 142.296875 74.617188 148.359375 74.617188 155.832031"/><path fill="#980026" d="M 214.492188 200.953125 L 214.492188 196.441406 C 214.492188 188.96875 208.425781 182.90625 200.953125 182.90625 L 196.441406 182.90625 L 196.441406 191.929688 L 200.953125 191.929688 C 203.441406 191.929688 205.464844 193.957031 205.464844 196.441406 L 205.464844 200.953125 C 205.464844 206.347656 207.847656 211.175781 211.582031 214.492188 C 207.847656 217.804688 205.464844 222.632812 205.464844 228.027344 L 205.464844 232.539062 C 205.464844 235.023438 203.441406 237.050781 200.953125 237.050781 L 196.441406 237.050781 L 196.441406 246.074219 L 200.953125 246.074219 C 208.425781 246.074219 214.492188 240.011719 214.492188 232.539062 L 214.492188 228.027344 C 214.492188 223.054688 218.542969 219.003906 223.515625 219.003906 L 223.515625 209.976562 C 218.542969 209.976562 214.492188 205.925781 214.492188 200.953125"/><path fill="#980026" d="M 101.6875 155.832031 L 187.417969 155.832031 L 187.417969 146.808594 L 101.6875 146.808594 L 101.6875 155.832031"/><path fill="#980026" d="M 119.738281 173.882812 L 187.417969 173.882812 L 187.417969 164.859375 L 119.738281 164.859375 L 119.738281 173.882812"/><path fill="#980026" d="M 110.710938 164.859375 L 101.6875 164.859375 L 101.6875 173.882812 L 110.710938 173.882812 L 110.710938 164.859375"/><path fill="#980026" d="M 101.6875 191.929688 L 187.417969 191.929688 L 187.417969 182.90625 L 101.6875 182.90625 L 101.6875 191.929688"/><path fill="#980026" d="M 101.6875 209.976562 L 187.417969 209.976562 L 187.417969 200.953125 L 101.6875 200.953125 L 101.6875 209.976562"/><path fill="#980026" d="M 178.394531 228.027344 L 187.417969 228.027344 L 187.417969 219.003906 L 178.394531 219.003906 L 178.394531 228.027344"/><path fill="#980026" d="M 169.371094 219.003906 L 101.6875 219.003906 L 101.6875 228.027344 L 169.371094 228.027344 L 169.371094 219.003906"/><path fill="#980026" d="M 101.6875 246.074219 L 187.417969 246.074219 L 187.417969 237.050781 L 101.6875 237.050781 L 101.6875 246.074219"/></svg>