<svg xmlns="http://www.w3.org/2000/svg" width="375" viewBox="0 0 375 375" height="375" version="1.0"><defs><clipPath id="a"><path d="M 135 46 L 312.105469 46 L 312.105469 280 L 135 280 Z M 135 46"/></clipPath><clipPath id="b"><path d="M 63.105469 10.738281 L 230 10.738281 L 230 363.988281 L 63.105469 363.988281 Z M 63.105469 10.738281"/></clipPath><clipPath id="c"><path d="M 2.808594 2.808594 L 372.558594 2.808594 L 372.558594 372.558594 L 2.808594 372.558594 Z M 2.808594 2.808594"/></clipPath></defs><path fill="#980026" d="M 242.984375 137.3125 C 242.984375 137.945312 242.953125 138.574219 242.890625 139.203125 C 242.828125 139.832031 242.734375 140.457031 242.613281 141.078125 C 242.488281 141.699219 242.335938 142.3125 242.148438 142.914062 C 241.964844 143.519531 241.753906 144.117188 241.511719 144.699219 C 241.269531 145.285156 241 145.855469 240.699219 146.410156 C 240.402344 146.96875 240.078125 147.511719 239.722656 148.035156 C 239.371094 148.5625 238.996094 149.070312 238.59375 149.558594 C 238.191406 150.046875 237.769531 150.515625 237.320312 150.960938 C 236.871094 151.410156 236.402344 151.832031 235.914062 152.234375 C 235.425781 152.636719 234.917969 153.011719 234.390625 153.363281 C 233.863281 153.714844 233.320312 154.039062 232.761719 154.335938 C 232.203125 154.632812 231.632812 154.90625 231.046875 155.144531 C 230.460938 155.386719 229.867188 155.601562 229.261719 155.785156 C 228.65625 155.96875 228.042969 156.121094 227.421875 156.246094 C 226.800781 156.367188 226.171875 156.460938 225.542969 156.523438 C 224.914062 156.585938 224.28125 156.617188 223.648438 156.617188 C 223.015625 156.617188 222.382812 156.585938 221.753906 156.523438 C 221.125 156.460938 220.496094 156.367188 219.875 156.246094 C 219.253906 156.121094 218.640625 155.96875 218.035156 155.785156 C 217.429688 155.601562 216.835938 155.386719 216.25 155.144531 C 215.664062 154.902344 215.09375 154.632812 214.535156 154.335938 C 213.976562 154.039062 213.433594 153.714844 212.90625 153.363281 C 212.378906 153.011719 211.871094 152.636719 211.382812 152.234375 C 210.894531 151.832031 210.425781 151.410156 209.976562 150.960938 C 209.53125 150.515625 209.105469 150.046875 208.703125 149.558594 C 208.300781 149.070312 207.925781 148.5625 207.574219 148.035156 C 207.222656 147.511719 206.894531 146.96875 206.597656 146.410156 C 206.296875 145.855469 206.027344 145.285156 205.785156 144.699219 C 205.542969 144.117188 205.332031 143.519531 205.148438 142.914062 C 204.960938 142.3125 204.808594 141.699219 204.6875 141.078125 C 204.5625 140.457031 204.46875 139.832031 204.40625 139.203125 C 204.34375 138.574219 204.3125 137.945312 204.3125 137.3125 C 204.3125 136.679688 204.34375 136.050781 204.40625 135.421875 C 204.46875 134.792969 204.5625 134.167969 204.6875 133.546875 C 204.808594 132.925781 204.960938 132.3125 205.148438 131.707031 C 205.332031 131.105469 205.542969 130.507812 205.785156 129.925781 C 206.027344 129.339844 206.296875 128.769531 206.597656 128.210938 C 206.894531 127.65625 207.222656 127.113281 207.574219 126.589844 C 207.925781 126.0625 208.300781 125.554688 208.703125 125.066406 C 209.105469 124.578125 209.53125 124.109375 209.976562 123.664062 C 210.425781 123.214844 210.894531 122.792969 211.382812 122.390625 C 211.871094 121.988281 212.378906 121.613281 212.90625 121.261719 C 213.433594 120.910156 213.976562 120.585938 214.535156 120.289062 C 215.09375 119.992188 215.664062 119.71875 216.25 119.476562 C 216.835938 119.238281 217.429688 119.023438 218.035156 118.839844 C 218.640625 118.65625 219.253906 118.503906 219.875 118.378906 C 220.496094 118.257812 221.125 118.164062 221.753906 118.101562 C 222.382812 118.039062 223.015625 118.007812 223.648438 118.007812 C 224.28125 118.007812 224.914062 118.039062 225.542969 118.101562 C 226.171875 118.164062 226.800781 118.257812 227.421875 118.378906 C 228.042969 118.503906 228.65625 118.65625 229.261719 118.839844 C 229.867188 119.023438 230.460938 119.238281 231.046875 119.476562 C 231.632812 119.71875 232.203125 119.992188 232.761719 120.289062 C 233.320312 120.585938 233.863281 120.910156 234.390625 121.261719 C 234.917969 121.613281 235.425781 121.988281 235.914062 122.390625 C 236.402344 122.792969 236.871094 123.214844 237.320312 123.664062 C 237.769531 124.109375 238.191406 124.578125 238.59375 125.066406 C 238.996094 125.554688 239.371094 126.0625 239.722656 126.589844 C 240.078125 127.113281 240.402344 127.65625 240.699219 128.210938 C 241 128.769531 241.269531 129.339844 241.511719 129.925781 C 241.753906 130.507812 241.964844 131.105469 242.148438 131.707031 C 242.335938 132.3125 242.488281 132.925781 242.613281 133.546875 C 242.734375 134.167969 242.828125 134.792969 242.890625 135.421875 C 242.953125 136.050781 242.984375 136.679688 242.984375 137.3125 Z M 242.984375 137.3125"/><path fill="#980026" d="M 267.011719 127.9375 C 265.90625 122.695312 263.972656 117.734375 260.9375 113.320312 C 259.554688 111.113281 259.832031 108.355469 261.765625 106.425781 L 264.527344 103.667969 L 257.34375 96.5 L 254.308594 99.257812 C 252.375 101.1875 249.613281 101.464844 247.402344 100.085938 C 242.984375 97.328125 238.011719 95.121094 232.761719 94.019531 C 230.277344 93.464844 228.34375 91.261719 228.34375 88.503906 L 228.34375 84.367188 L 218.125 84.367188 L 218.125 88.503906 C 218.125 90.984375 216.191406 93.464844 213.707031 94.019531 C 208.457031 95.121094 203.484375 97.328125 199.066406 100.085938 C 196.855469 101.464844 194.09375 101.1875 192.160156 99.257812 L 189.398438 96.5 L 182.21875 103.667969 L 184.980469 106.425781 C 186.914062 108.355469 187.1875 111.113281 185.808594 113.320312 C 183.046875 117.734375 180.835938 122.695312 179.730469 127.9375 C 179.179688 130.417969 176.96875 132.347656 174.207031 132.347656 L 170.066406 132.347656 L 170.066406 142.550781 L 174.207031 142.550781 C 176.695312 142.550781 179.179688 144.480469 179.730469 146.964844 C 180.835938 152.203125 183.046875 157.167969 185.808594 161.578125 C 187.1875 163.785156 186.914062 166.542969 184.980469 168.472656 L 182.21875 171.230469 L 189.398438 178.402344 L 192.160156 175.644531 C 193.265625 174.539062 194.648438 173.988281 196.027344 173.988281 C 197.132812 173.988281 198.238281 174.265625 199.066406 174.816406 C 203.484375 177.574219 208.457031 179.78125 213.707031 180.882812 C 216.191406 181.433594 218.125 183.640625 218.125 186.398438 L 218.125 190.257812 L 228.34375 190.257812 L 228.34375 186.121094 C 228.34375 183.363281 230.277344 181.160156 232.761719 180.605469 C 238.011719 179.503906 242.984375 177.574219 247.402344 174.539062 C 249.613281 173.160156 252.375 173.4375 254.308594 175.367188 L 257.070312 178.125 L 264.25 170.957031 L 261.488281 167.921875 C 259.554688 165.992188 259.277344 163.234375 260.660156 161.027344 C 263.421875 156.617188 265.632812 151.652344 266.738281 146.414062 C 267.289062 143.929688 269.5 142 272.261719 142 L 276.402344 142 L 276.402344 131.796875 L 272.261719 131.796875 C 270.050781 132.347656 267.566406 130.417969 267.011719 127.9375 Z M 223.648438 167.644531 C 206.800781 167.644531 193.265625 154.132812 193.265625 137.3125 C 193.265625 120.492188 206.800781 106.980469 223.648438 106.980469 C 240.496094 106.980469 254.03125 120.492188 254.03125 137.3125 C 254.03125 154.132812 240.496094 167.644531 223.648438 167.644531 Z M 223.648438 167.644531"/><g clip-path="url(#a)"><path fill="#980026" d="M 297.394531 183.363281 C 304.300781 172.058594 312.035156 156.890625 312.035156 138.140625 C 312.035156 87.675781 272.261719 46.585938 223.648438 46.585938 C 174.761719 46.585938 135.261719 87.675781 135.261719 138.140625 C 135.261719 157.167969 141.0625 175.367188 151.835938 190.808594 C 154.042969 193.84375 156.253906 197.152344 158.464844 200.1875 C 169.511719 215.351562 179.730469 229.96875 184.425781 247.890625 C 181.664062 248.167969 179.457031 250.648438 179.457031 253.40625 C 179.457031 256.441406 181.941406 258.921875 184.980469 258.921875 L 187.1875 258.921875 C 187.742188 262.230469 188.292969 266.921875 188.570312 274.640625 C 188.570312 277.398438 191.054688 279.878906 194.09375 279.878906 C 194.09375 279.878906 253.203125 279.878906 253.203125 279.878906 C 255.964844 279.878906 258.726562 277.398438 258.726562 274.640625 C 259.003906 267.195312 259.832031 262.230469 260.382812 258.921875 L 262.316406 258.921875 C 265.355469 258.921875 267.839844 256.441406 267.839844 253.40625 C 267.839844 250.375 265.355469 247.890625 262.316406 247.890625 C 266.183594 230.242188 277.507812 213.699219 288.28125 197.703125 C 291.320312 192.464844 294.355469 188.050781 297.394531 183.363281 Z M 247.953125 268.574219 L 199.34375 268.574219 C 199.066406 264.4375 198.789062 261.128906 198.515625 258.648438 L 249.058594 258.648438 C 248.507812 261.40625 248.230469 264.4375 247.953125 268.574219 Z M 287.726562 142.550781 C 287.726562 148.617188 282.757812 153.582031 276.957031 153.582031 C 275.851562 157.167969 274.46875 160.476562 272.8125 163.507812 C 274.746094 165.714844 275.851562 168.199219 275.851562 171.230469 C 275.851562 174.265625 274.746094 177.023438 272.535156 178.953125 L 265.355469 186.121094 C 260.9375 190.535156 254.03125 190.535156 249.886719 186.398438 C 246.574219 188.050781 243.257812 189.429688 239.945312 190.535156 C 239.667969 196.601562 234.972656 201.289062 228.894531 201.289062 L 218.675781 201.289062 C 212.601562 201.289062 207.628906 196.324219 207.628906 190.535156 C 204.039062 189.429688 200.722656 188.050781 197.683594 186.398438 C 193.265625 190.535156 186.359375 190.535156 182.21875 186.121094 L 174.761719 178.953125 C 172.550781 176.746094 171.445312 173.988281 171.445312 171.230469 C 171.445312 168.472656 172.550781 165.714844 174.484375 163.507812 C 172.828125 160.199219 171.445312 156.890625 170.339844 153.582031 C 164.265625 153.304688 159.570312 148.617188 159.570312 142.550781 L 159.570312 132.347656 C 159.570312 126.28125 164.539062 121.316406 170.339844 121.316406 C 171.445312 117.734375 172.828125 114.425781 174.484375 111.390625 C 172.550781 109.183594 171.445312 106.703125 171.445312 103.667969 C 171.445312 100.636719 172.550781 97.878906 174.761719 95.949219 L 181.941406 88.777344 C 186.085938 84.640625 193.265625 84.640625 197.410156 88.503906 C 200.722656 86.847656 204.039062 85.46875 207.351562 84.367188 C 207.351562 78.300781 212.324219 73.613281 218.402344 73.613281 L 228.621094 73.613281 C 234.695312 73.613281 239.667969 78.574219 239.667969 84.367188 C 243.257812 85.46875 246.574219 86.847656 249.613281 88.503906 C 251.820312 86.574219 254.308594 85.46875 257.34375 85.46875 C 260.382812 85.46875 263.144531 86.574219 265.355469 88.777344 L 272.535156 95.949219 C 274.746094 98.152344 275.851562 100.910156 275.851562 103.667969 C 275.851562 106.425781 274.746094 109.183594 272.8125 111.390625 C 274.46875 114.699219 275.851562 118.007812 276.957031 121.316406 C 283.03125 121.316406 287.726562 126.28125 287.726562 132.347656 Z M 287.726562 142.550781"/></g><path fill="#980026" d="M 202.933594 288.980469 C 199.894531 288.980469 197.410156 291.460938 197.410156 294.496094 C 197.410156 297.53125 199.894531 300.011719 202.933594 300.011719 L 244.363281 300.011719 C 247.402344 300.011719 249.886719 297.53125 249.886719 294.496094 C 249.886719 291.460938 247.402344 288.980469 244.363281 288.980469 Z M 202.933594 288.980469"/><g clip-path="url(#b)"><path fill="#980026" d="M 223.648438 10.738281 C 151.835938 10.738281 93.832031 71.957031 91.070312 149.996094 C 91.070312 152.203125 90.515625 154.683594 89.414062 157.167969 L 66.488281 196.324219 C 64.277344 200.1875 63.171875 204.597656 63.171875 208.734375 C 64 220.59375 73.945312 230.242188 86.375 230.242188 C 90.515625 230.242188 93.832031 233.554688 93.832031 237.414062 L 93.832031 263.058594 C 93.832031 290.085938 116.203125 311.867188 143.550781 311.867188 L 156.808594 311.867188 C 177.246094 313.523438 187.742188 322.070312 187.742188 336.964844 C 187.742188 339.167969 188.019531 358.472656 188.019531 358.472656 C 188.019531 361.507812 190.503906 363.988281 193.542969 363.988281 C 196.582031 363.988281 199.066406 361.507812 199.066406 358.472656 C 199.066406 356.816406 199.617188 343.582031 198.515625 334.207031 C 198.238281 332 197.960938 330.070312 197.410156 328.140625 C 193.542969 312.695312 179.457031 303.042969 157.359375 301.113281 C 157.082031 301.113281 157.082031 301.113281 156.808594 301.113281 L 143.550781 301.113281 C 122.28125 301.113281 104.878906 284.292969 104.878906 263.335938 L 104.878906 237.6875 C 104.878906 227.484375 96.59375 219.488281 86.375 219.488281 C 80.023438 219.488281 74.773438 214.527344 74.222656 208.457031 C 73.945312 205.976562 75.050781 203.769531 75.878906 202.390625 L 99.078125 162.40625 C 99.078125 162.128906 99.355469 162.128906 99.355469 161.855469 C 101.011719 157.996094 101.84375 154.132812 102.117188 150.273438 C 104.605469 78.300781 157.910156 21.769531 223.648438 21.769531 C 226.6875 21.769531 229.171875 19.285156 229.171875 16.253906 C 229.171875 13.21875 226.6875 10.738281 223.648438 10.738281 Z M 223.648438 10.738281"/></g><g clip-path="url(#c)"><path fill="#980026" d="M 187.683594 21.296875 C 279.4375 21.296875 354.074219 95.933594 354.074219 187.683594 C 354.074219 279.4375 279.4375 354.074219 187.683594 354.074219 C 95.933594 354.074219 21.296875 279.4375 21.296875 187.683594 C 21.296875 95.933594 95.933594 21.296875 187.683594 21.296875 M 187.683594 2.808594 C 85.578125 2.808594 2.808594 85.578125 2.808594 187.683594 C 2.808594 289.792969 85.578125 372.558594 187.683594 372.558594 C 289.792969 372.558594 372.558594 289.792969 372.558594 187.683594 C 372.558594 85.578125 289.792969 2.808594 187.683594 2.808594 Z M 187.683594 2.808594"/></g></svg>