<svg xmlns="http://www.w3.org/2000/svg" width="1012.5" viewBox="0 0 1012.5 487.5" height="487.5" version="1.0"><defs><clipPath id="a"><path d="M 0.269531 0 L 1011.730469 0 L 1011.730469 487 L 0.269531 487 Z M 0.269531 0"/></clipPath><clipPath id="b"><path d="M 0.269531 0 L 356.328125 0 L 356.328125 487 L 0.269531 487 Z M 0.269531 0"/></clipPath></defs><g clip-path="url(#a)" fill="#FFF"><path d="M 0.269531 0 L 1012.230469 0 L 1012.230469 493.988281 L 0.269531 493.988281 Z M 0.269531 0"/><path d="M 0.269531 0 L 1012.230469 0 L 1012.230469 487.242188 L 0.269531 487.242188 Z M 0.269531 0"/><path d="M 0.269531 0 L 1012.230469 0 L 1012.230469 487.242188 L 0.269531 487.242188 Z M 0.269531 0"/></g><path fill="#980026" d="M 2.554688 2.667969 C 2.554688 38.699219 26.40625 69.609375 58.53125 97.320312 C 102.671875 135.320312 162.398438 167.328125 197.628906 198.238281 C 266.675781 258.914062 354.042969 354.117188 354.042969 484.570312 L 2.554688 484.570312 Z M 2.554688 2.667969"/><g clip-path="url(#b)"><path transform="matrix(0 -.45726 .45696 0 .269 486.859)" fill="none" stroke-linejoin="round" d="M 1058.901668 5.002055 C 980.103046 5.002055 912.504011 57.1986 851.901514 127.500661 C 768.797329 224.097608 698.797772 354.80268 631.198737 431.900721 C 498.503702 583.002282 290.299015 774.195849 5.004262 774.195849 L 5.004262 5.002055 Z M 1058.901668 5.002055" stroke="#F3F6E6" stroke-width="10" stroke-miterlimit="10"/></g></svg>